<?xml version="1.0" encoding="UTF-8"?>
<svg xmlns="http://www.w3.org/2000/svg" viewBox="0 0 396.31 396.31">
  <defs>
    <style>
      .cls-1 {
        fill: #69b4ff;
      }

      .cls-2 {
        fill: #83c7ff;
      }

      .cls-3 {
        fill: #3185ff;
      }

      .cls-4 {
        fill: #43b543;
      }

      .cls-5 {
        fill: #2d9e2d;
      }

      .cls-6 {
        fill: #5bc45b;
      }

      .cls-7 {
        fill: #509df9;
      }

      .cls-8 {
        opacity: .15;
      }

      .cls-8, .cls-9, .cls-10 {
        fill: #fff;
      }

      .cls-9 {
        opacity: .2;
      }

      .cls-11 {
        isolation: isolate;
      }

      .cls-12 {
        mix-blend-mode: multiply;
        opacity: .18;
      }

      .cls-13 {
        opacity: 0;
      }

      .cls-10 {
        opacity: .26;
      }
    </style>
  </defs>
  <g class="cls-11">
    <g id="Lager_2" data-name="Lager 2">
      <g id="Layer_1" data-name="Layer 1">
        <g>
          <g>
            <path class="cls-3" d="M396.31,198.16c0,.66,0,1.33-.02,2h0c-.17,17.62-2.65,34.69-7.13,50.91-4.49,16.23-10.99,31.62-19.22,45.89-3.63,6.29-7.58,12.35-11.84,18.17-.02,.03-.04,.06-.06,.08-4.27,5.83-8.85,11.41-13.72,16.72-15.3,16.71-33.43,30.79-53.63,41.48h0c-1.11,.59-2.21,1.15-3.33,1.72l-.35,.17c-1.07,.54-2.14,1.06-3.21,1.58-.16,.08-.33,.16-.5,.24-1.06,.5-2.12,1-3.18,1.48-.17,.08-.34,.15-.51,.23-1.08,.49-2.16,.97-3.25,1.43-.12,.06-.25,.11-.38,.16-4.67,1.99-9.42,3.81-14.26,5.45-.19,.06-.38,.13-.57,.19-.9,.3-1.81,.59-2.71,.89-.47,.14-.94,.3-1.41,.44-.81,.25-1.62,.5-2.43,.74-.58,.17-1.15,.34-1.73,.51-.76,.21-1.52,.42-2.29,.63-.64,.17-1.29,.35-1.93,.52-.72,.19-1.44,.38-2.17,.56-.7,.17-1.4,.35-2.11,.52-.69,.16-1.38,.33-2.07,.48-.77,.17-1.54,.34-2.31,.51-.63,.13-1.28,.28-1.92,.4-.88,.18-1.75,.35-2.64,.52-.55,.1-1.09,.21-1.64,.31-1.41,.26-2.84,.5-4.26,.73-1.5,.24-2.99,.45-4.5,.66-.04,0-.08,0-.12,.02-1.54,.2-3.1,.39-4.66,.57-7.25,.81-14.62,1.22-22.1,1.22-1.54,0-3.07-.02-4.61-.06-.47,0-.94-.03-1.41-.04-1.1-.04-2.18-.08-3.27-.12-.51-.03-1.01-.05-1.51-.08-1.24-.07-2.48-.14-3.71-.23-.29-.02-.58-.04-.88-.06-1.45-.12-2.9-.25-4.35-.39-.56-.05-1.12-.12-1.67-.17-.92-.1-1.86-.2-2.78-.32-.63-.08-1.26-.15-1.89-.24-.9-.12-1.81-.24-2.7-.38-.59-.09-1.17-.16-1.76-.26-1.33-.2-2.64-.42-3.95-.65-.72-.12-1.44-.26-2.16-.39-.69-.13-1.39-.27-2.09-.4-.78-.15-1.55-.31-2.33-.47-.62-.13-1.24-.27-1.86-.4-2.9-.64-5.77-1.35-8.63-2.12-.48-.12-.97-.26-1.45-.39-.88-.24-1.74-.49-2.61-.74-.46-.13-.92-.27-1.39-.41-.89-.27-1.79-.54-2.68-.82t-.02,0c-1.58-.49-3.16-1.01-4.71-1.55-.12-.04-.21-.08-.33-.12-1.46-.51-2.91-1.03-4.36-1.57-.17-.06-.35-.12-.52-.19-1.38-.52-2.75-1.05-4.12-1.6-.21-.09-.43-.17-.64-.26-1.32-.54-2.63-1.09-3.93-1.64-.24-.11-.48-.21-.73-.32-1.27-.56-2.53-1.12-3.79-1.7-.26-.12-.53-.24-.79-.37-1.23-.58-2.46-1.16-3.68-1.76-.27-.13-.54-.27-.81-.4-1.2-.6-2.4-1.21-3.6-1.84-.28-.14-.55-.29-.82-.43-1.19-.63-2.37-1.26-3.54-1.91-.27-.14-.54-.3-.81-.45-1.16-.65-2.33-1.33-3.48-2-.27-.15-.53-.31-.79-.46-1.15-.69-2.31-1.39-3.45-2.11-.25-.15-.49-.31-.74-.46-1.15-.73-2.3-1.47-3.44-2.22-.22-.14-.45-.29-.67-.44-1.16-.77-2.31-1.55-3.45-2.35-.19-.13-.39-.27-.6-.41-1.16-.82-2.32-1.64-3.47-2.49-.16-.12-.34-.24-.5-.37-1.18-.87-2.36-1.76-3.52-2.65-.13-.1-.25-.19-.38-.29-1.21-.94-2.41-1.89-3.61-2.87-.07-.06-.13-.12-.21-.17-4.46-3.64-8.75-7.47-12.88-11.49-.12-.12-.25-.24-.38-.37-4.43-4.33-8.66-8.87-12.67-13.59-.05-.05-.09-.1-.13-.14-4.06-4.8-7.9-9.79-11.5-14.96h0s0,0,0,0c-1.04-1.51-2.07-3.02-3.07-4.56h0c-6.01-9.19-11.29-18.9-15.75-29.07-.02-.06-.05-.12-.08-.18-8.32-19.07-13.74-39.7-15.67-61.33-.04-.43-.08-.87-.12-1.3-.07-.82-.13-1.64-.19-2.46-.06-.89-.12-1.77-.16-2.66-.05-.74-.09-1.47-.12-2.21-.06-1.14-.1-2.28-.13-3.42,0-.45-.03-.91-.04-1.37-.03-1.48-.06-2.97-.06-4.46,0-1.26,.03-2.51,.05-3.77,.03-1.2,.07-2.4,.11-3.61,0-.26,.02-.52,.03-.78,.05-1.15,.11-2.3,.17-3.44,0-.25,.03-.49,.04-.74,.21-3.35,.5-6.68,.87-9.98,.08-.63,.14-1.25,.22-1.87,.1-.79,.19-1.57,.3-2.36,.11-.76,.21-1.51,.32-2.27,.11-.69,.2-1.39,.31-2.09,.15-.96,.32-1.92,.48-2.88,.58-3.37,1.24-6.71,1.99-10.02,.04-.17,.07-.35,.11-.52,.3-1.28,.61-2.54,.92-3.81,.06-.23,.11-.46,.17-.7,.33-1.3,.67-2.59,1.03-3.88l.14-.55c.38-1.34,.76-2.66,1.16-3.99,.04-.13,.07-.25,.11-.37,.42-1.38,.86-2.74,1.3-4.1,.02-.07,.04-.13,.07-.2,.45-1.39,.93-2.79,1.42-4.17,0-.02,0-.04,.02-.07,.5-1.4,1.02-2.81,1.55-4.2,2.93-7.72,6.33-15.22,10.17-22.44,.03-.04,.05-.08,.07-.12,2.85-5.34,5.93-10.54,9.23-15.58,.09-.14,.18-.28,.27-.41,2.4-3.65,4.93-7.21,7.56-10.69,.04-.06,.09-.12,.13-.17,2.87-3.77,5.86-7.43,8.97-10.98,.14-.16,.29-.32,.42-.48,2.69-3.05,5.48-6,8.37-8.87,.34-.36,.7-.71,1.06-1.07,.26-.26,.52-.51,.78-.77,3.17-3.09,6.44-6.07,9.82-8.95,.35-.3,.7-.6,1.06-.89,1.67-1.41,3.38-2.8,5.1-4.16,1.14-.89,2.27-1.76,3.42-2.63,.43-.33,.88-.64,1.32-.97,.75-.56,1.5-1.11,2.26-1.64,.5-.37,1-.71,1.5-1.07,.71-.5,1.43-1,2.15-1.49,.52-.36,1.03-.7,1.55-1.05,.74-.5,1.48-.98,2.23-1.47,.5-.32,.99-.64,1.5-.96,.85-.55,1.71-1.08,2.57-1.61,.4-.25,.8-.5,1.19-.74,1.24-.75,2.49-1.49,3.74-2.21,.4-.23,.81-.45,1.21-.68,.89-.5,1.78-1.01,2.67-1.5,.52-.28,1.04-.56,1.56-.83,.8-.43,1.6-.86,2.4-1.27,.55-.29,1.1-.57,1.65-.85,.8-.4,1.6-.8,2.4-1.19,.54-.27,1.08-.53,1.63-.79,.88-.42,1.75-.83,2.64-1.23,.47-.22,.94-.44,1.42-.65,1.34-.61,2.68-1.19,4.04-1.77,.23-.1,.46-.19,.69-.29,1.15-.48,2.3-.95,3.46-1.41,.5-.2,1.01-.39,1.52-.59,.89-.35,1.8-.69,2.7-1.03,.56-.2,1.12-.4,1.68-.61,.87-.32,1.74-.63,2.62-.92,.57-.2,1.14-.39,1.7-.58,.91-.31,1.84-.61,2.76-.9,.52-.16,1.04-.33,1.56-.49,1.15-.36,2.32-.7,3.48-1.04,.29-.08,.58-.17,.88-.25,1.44-.41,2.9-.81,4.35-1.18,.46-.12,.91-.22,1.38-.34,1.02-.26,2.04-.51,3.07-.75,.57-.13,1.13-.26,1.69-.38,.94-.21,1.89-.42,2.83-.62,.59-.12,1.16-.24,1.75-.37,.96-.19,1.92-.38,2.89-.55,.56-.11,1.12-.21,1.67-.31,1.1-.19,2.19-.37,3.29-.55,.43-.07,.85-.13,1.28-.2,1.52-.23,3.04-.44,4.58-.64,.33-.04,.66-.07,.99-.12,1.21-.14,2.42-.29,3.64-.41,.55-.06,1.1-.11,1.64-.15,1.01-.1,2.03-.19,3.05-.28,.6-.04,1.18-.09,1.78-.12,1-.08,2-.13,3-.19,.59-.04,1.17-.07,1.76-.1,1.08-.05,2.15-.09,3.22-.12,.51,0,1.02-.03,1.53-.05,1.58-.04,3.16-.06,4.75-.06,7.47,0,14.84,.41,22.1,1.22,1.4,.15,2.79,.33,4.18,.51,.41,.06,.83,.12,1.25,.17,1,.14,2,.29,3,.44,.43,.07,.88,.13,1.31,.2,1.18,.19,2.37,.39,3.54,.61,.2,.04,.39,.07,.59,.11,1.35,.25,2.68,.51,4.02,.78,.43,.09,.86,.18,1.29,.28,.93,.19,1.87,.39,2.8,.61,.48,.12,.96,.22,1.44,.34,.98,.23,1.96,.47,2.93,.71,.37,.1,.73,.18,1.1,.28,1.26,.32,2.52,.66,3.77,1.01,.49,.13,.98,.28,1.46,.42,.82,.23,1.64,.47,2.45,.71,.56,.17,1.11,.34,1.65,.51,.79,.24,1.57,.5,2.36,.75,.52,.16,1.03,.33,1.54,.5,1.17,.39,2.34,.79,3.49,1.2,.59,.21,1.16,.42,1.74,.63,.66,.24,1.33,.49,1.99,.74,.64,.24,1.28,.48,1.91,.73,.6,.23,1.19,.47,1.8,.71,.64,.26,1.29,.52,1.93,.79,.62,.25,1.22,.51,1.83,.77,1.16,.49,2.32,1,3.47,1.51,.48,.22,.96,.43,1.43,.65,.72,.33,1.44,.66,2.16,1,.43,.21,.87,.41,1.3,.63,.75,.37,1.51,.72,2.25,1.1,.16,.08,.32,.16,.47,.24,1.67,.84,3.35,1.7,4.99,2.59,.26,.14,.52,.28,.78,.41,.81,.44,1.61,.88,2.4,1.33,.29,.16,.58,.33,.87,.49,.83,.46,1.64,.93,2.47,1.41,0,0,.02,.02,.04,.03,1.92,1.13,3.82,2.29,5.7,3.47,0,0,.03,.02,.04,.03,.86,.54,1.7,1.1,2.55,1.64,.18,.12,.38,.24,.56,.37,1.2,.8,2.4,1.61,3.59,2.42,2.36,1.63,4.68,3.3,6.95,5.03,.13,.1,.24,.18,.36,.27,13.01,9.9,24.75,21.36,34.96,34.12,0,0,.03,.03,.04,.05,.84,1.05,1.66,2.11,2.49,3.17,.04,.06,.08,.11,.12,.15,.8,1.05,1.6,2.12,2.38,3.18,.05,.06,.1,.12,.14,.18,.78,1.07,1.55,2.15,2.31,3.22,.04,.06,.08,.12,.12,.18,.76,1.09,1.52,2.19,2.26,3.3,.03,.04,.06,.09,.09,.13,.75,1.14,1.5,2.27,2.24,3.41h0c1.08,1.69,2.13,3.39,3.16,5.11,.04,.07,.09,.13,.12,.21,2.34,3.91,4.54,7.9,6.6,11.98,.05,.09,.09,.17,.13,.26,.44,.88,.88,1.76,1.3,2.65,.18,.37,.37,.73,.54,1.11,.4,.84,.79,1.67,1.18,2.52,.19,.41,.38,.84,.58,1.26,.38,.84,.75,1.67,1.12,2.51,.18,.42,.37,.86,.55,1.28,.37,.86,.73,1.71,1.08,2.58,.17,.39,.33,.8,.49,1.2,.37,.89,.72,1.8,1.08,2.7,.12,.32,.24,.64,.37,.97,.38,.99,.75,1.98,1.11,2.98,0,0,0,.02,.02,.04,1.32,3.65,2.52,7.34,3.63,11.08,.04,.11,.07,.21,.1,.32,.32,1.07,.62,2.15,.91,3.23,.08,.27,.15,.54,.23,.82,.28,1.03,.55,2.07,.81,3.11,.09,.32,.16,.63,.24,.94,.26,1.04,.51,2.08,.75,3.13,.07,.3,.13,.61,.2,.9,.24,1.08,.48,2.15,.7,3.23,.05,.23,.1,.46,.14,.69,1.14,5.56,2.04,11.19,2.7,16.9,0,.02,0,.04,0,.07,.16,1.47,.32,2.95,.46,4.44,0,.15,.02,.32,.04,.47,.12,1.36,.23,2.71,.33,4.08,.03,.36,.04,.71,.07,1.08,.07,1.16,.14,2.34,.2,3.51,.03,.68,.05,1.38,.07,2.06,.04,.86,.08,1.72,.1,2.58,.04,1.56,.05,3.13,.05,4.69Z"/>
            <path class="cls-5" d="M322.41,289.54c-4.57,23.64-19.86,44.32-39.07,58.85-34.74,26.28-80.03,33.27-123.4,37.53,16.04-17.2,32.08-34.4,48.12-51.6,5.45-5.86,11.03-11.9,13.95-19.34,4.5-11.47,2.02-24.38-.92-36.33-10.07-40.87-27.44-83.61-63.57-105.2-24.71-14.76-56.19-18.23-76.8-38.31-14.83-14.45-21.59-35.64-22.48-56.32-.3-6.92-.43-13.92-.14-20.78,.34-.36,.7-.71,1.06-1.07,.26-.26,.52-.51,.78-.77,3.17-3.09,6.44-6.07,9.82-8.95,.35-.3,.7-.6,1.06-.89,1.67-1.41,3.38-2.8,5.1-4.16,1.14-.89,2.27-1.76,3.42-2.63,.43-.33,.88-.64,1.32-.97,.75-.56,1.5-1.11,2.26-1.64,.5-.37,1-.71,1.5-1.07,.71-.5,1.43-1,2.15-1.49,.52-.36,1.03-.7,1.55-1.05,.74-.5,1.48-.98,2.23-1.47,.5-.32,.99-.64,1.5-.96,.85-.55,1.71-1.08,2.57-1.61,.4-.25,.8-.5,1.19-.74,1.24-.75,2.49-1.49,3.74-2.21,.4-.23,.81-.45,1.21-.68,.89-.5,1.78-1.01,2.67-1.5,.52-.28,1.04-.56,1.56-.83,.8-.43,1.6-.86,2.4-1.27,.55-.29,1.1-.57,1.65-.85,.8-.4,1.6-.8,2.4-1.19,.54-.27,1.08-.53,1.63-.79,.88-.42,1.75-.83,2.64-1.23,.47-.22,.94-.44,1.42-.65,1.34-.61,2.68-1.19,4.04-1.77,.23-.1,.46-.19,.69-.29,1.15-.48,2.3-.95,3.46-1.41,.5-.2,1.01-.39,1.52-.59,.89-.35,1.8-.69,2.7-1.03,.56-.2,1.12-.4,1.68-.61,.87-.32,1.74-.63,2.62-.92,.57-.2,1.14-.39,1.7-.58,.91-.31,1.84-.61,2.76-.9,.52-.16,1.04-.33,1.56-.49,1.15-.36,2.32-.7,3.48-1.04,.29-.08,.58-.17,.88-.25,1.44-.41,2.9-.81,4.35-1.18,.46-.12,.91-.22,1.38-.34,1.02-.26,2.04-.51,3.07-.75,.57-.13,1.13-.26,1.69-.38,.94-.21,1.89-.42,2.83-.62,.59-.12,1.16-.24,1.75-.37,.96-.19,1.92-.38,2.89-.55,.56-.11,1.12-.21,1.67-.31,1.1-.19,2.19-.37,3.29-.55,.43-.07,.85-.13,1.28-.2,1.52-.23,3.04-.44,4.58-.64,.33-.04,.66-.07,.99-.12,1.21-.14,2.42-.29,3.64-.41,.55-.06,1.1-.11,1.64-.15,1.01-.1,2.03-.19,3.05-.28,.6-.04,1.18-.09,1.78-.12,1-.08,2-.13,3-.19,.59-.04,1.17-.07,1.76-.1,1.08-.05,2.15-.09,3.22-.12,.51,0,1.02-.03,1.53-.05,1.58-.04,3.16-.06,4.75-.06,7.47,0,14.84,.41,22.1,1.22,1.4,.15,2.79,.33,4.18,.51,.41,.06,.83,.12,1.25,.17,1,.14,2,.29,3,.44,.43,.07,.88,.13,1.31,.2,1.18,.19,2.37,.39,3.54,.61,.2,.04,.39,.07,.59,.11,1.35,.25,2.68,.51,4.02,.78,.43,.09,.86,.18,1.29,.28,.93,.19,1.87,.39,2.8,.61,.48,.12,.96,.22,1.44,.34,.98,.23,1.96,.47,2.93,.71,.37,.1,.73,.18,1.1,.28,1.26,.32,2.52,.66,3.77,1.01,.49,.13,.98,.28,1.46,.42,.82,.23,1.64,.47,2.45,.71,.56,.17,1.11,.34,1.65,.51,.79,.24,1.57,.5,2.36,.75,.52,.16,1.03,.33,1.54,.5,1.17,.39,2.34,.79,3.49,1.2,.59,.21,1.16,.42,1.74,.63,.66,.24,1.33,.49,1.99,.74,.64,.24,1.28,.48,1.91,.73,.6,.23,1.19,.47,1.8,.71,.64,.26,1.29,.52,1.93,.79,.62,.25,1.22,.51,1.83,.77,1.16,.49,2.32,1,3.47,1.51,.48,.22,.96,.43,1.43,.65,.72,.33,1.44,.66,2.16,1,.43,.21,.87,.41,1.3,.63,.75,.37,1.51,.72,2.25,1.1,.16,.08,.32,.16,.47,.24,1.67,.84,3.35,1.7,4.99,2.59,.26,.14,.52,.28,.78,.41,.81,.44,1.61,.88,2.4,1.33,.29,.16,.58,.33,.87,.49,.83,.46,1.64,.93,2.47,1.41,0,0,.02,.02,.04,.03,1.92,1.13,3.82,2.29,5.7,3.47,0,0,.03,.02,.04,.03,.86,.54,1.7,1.1,2.55,1.64,.18,.12,.38,.24,.56,.37,1.2,.8,2.4,1.61,3.59,2.42-4.52,16.57-14.35,31.74-27.95,42.28-7.46,5.79-15.97,10.23-22.99,16.55-7.03,6.32-12.66,15.27-11.75,24.67,.39,4.16,2.03,8.25,1.4,12.37-1.55,10.29-16.3,13.26-25.18,7.85-8.88-5.43-13.54-15.49-19.07-24.3-5.54-8.81-13.91-17.55-24.31-17.18-12.95,.45-21.24,15.63-19.36,28.45,1.87,12.81,10.63,23.4,19.07,33.22,10.56,12.28,21.45,24.76,35.5,32.83,26.4,15.17,61.14,13.18,84.76,32.4,18.68,15.2,26.15,41.67,21.59,65.32Z"/>
            <path class="cls-4" d="M95.4,54.29c8.79-7.98,17.57-15.96,26.36-23.94,6.82-6.19,13.85-12.52,22.46-15.78,8.51-3.22,17.86-3.18,26.96-3.1,15.97,.14,31.94,.29,47.9,.43,11.28,.1,23.13,.35,32.89,6.01,9.24,5.36,15.53,15.47,16.25,26.13s-4.15,21.53-12.58,28.07c-6.13,4.77-14.23,7.64-18,14.43-1.54,2.78-2.2,5.97-3.66,8.79s-4.17,5.4-7.34,5.21c-3.5-.21-5.84-3.5-8.11-6.16-9.76-11.44-26.32-15.1-41.22-13.08-9.4,1.27-19.09,4.94-24.6,12.66-6.35,8.9-5.72,20.97-3.27,31.63,2.45,10.65,6.46,21.19,5.99,32.11-12.72-5.48-22.21-17.84-24.22-31.54-.66-4.5-.68-9.41-3.47-13-2.28-2.93-5.94-4.34-9.22-6.09-9.87-5.27-17.34-14.83-20.07-25.68-2.73-10.85-16.16-11.47-9.96-20.78-3,2.47,10.5-7.8,6.92-6.31Z"/>
            <path class="cls-4" d="M240.17,266.33c5.72,14.13,6.59,30.17,2.43,44.84-4.15,14.67-13.31,27.87-25.59,36.91-4.97,3.66-11.01,7.59-11.4,13.75,25.72,2.51,52.38-7.82,69.7-27,6.11-6.77,11.06-14.49,15.98-22.17,3.89-6.08,7.93-12.66,7.65-19.87-.21-5.38-2.84-10.54-2.48-15.91,.44-6.5,5.21-12.33,4.73-18.83-.43-5.83-5.1-10.59-10.34-13.2-5.24-2.61-11.11-3.56-16.72-5.22-12.72-3.76-24.02-11.12-35.13-18.38-3.31-2.16-19.95-16.08-23.25-14.89-3.31,1.19,.99,13.63,1.74,16.05,4.94,15.87,16.47,28.61,22.66,43.92Z"/>
            <path class="cls-6" d="M256.04,269.16c1.14,4.66,3.6,8.89,5.16,13.42,4,11.6,1.7,25.17-5.91,34.79-1.57,1.98-3.43,4.58-2.15,6.75,.88,1.5,2.98,1.89,4.63,1.35,1.65-.54,2.96-1.79,4.19-3.02,6.72-6.7,13.09-13.98,17.09-22.58,4-8.61,5.43-18.75,2.13-27.65-4.48-12.07-30.68-25.67-25.13-3.07Z"/>
            <path class="cls-6" d="M155.83,69.51c9.82-3.18,20.4-2.45,30.71-2.58s21.25-1.36,29.43-7.65c6.2-4.76,10.24-13.66,6.48-20.51-2.79-5.08-8.96-7.42-14.75-7.73-5.79-.31-11.55,.98-17.34,1.19-9.9,.35-19.78-2.45-29.63-1.45-16.64,1.7-30.34,13.93-40.31,27.36-2.97,4-5.83,8.48-5.93,13.46-.11,5.96,3.71,11.18,7.35,15.9,2.34,3.03,6.93,9.02,11.59,7.63,3.58-1.07,2.97-4.36,3.82-7.47,2.46-8.95,9.85-15.35,18.57-18.17Z"/>
            <path class="cls-7" d="M15.93,233.97c7.61,38.52,29.41,73.41,57.93,100.4,10.82,10.24,22.81,19.55,36.63,25.11,13.82,5.56,29.69,7.07,43.61,1.8,20.25-7.67,33.01-28.09,39.44-48.76,6.78-21.78,8.11-45.52,1.87-67.47-6.24-21.95-20.35-41.91-40.01-53.5-15.21-8.97-32.87-12.67-49.4-18.88-16.53-6.21-33.11-16.1-40.2-32.28-2.02-4.6-3.18-9.54-5.3-14.1-2.12-4.55-5.46-8.87-10.2-10.53-11.31-3.96-12.84,8.58-16.91,15.47-6.05,10.24-11.05,20.78-14.43,32.22-6.74,22.78-7.63,47.24-3.03,70.52Z"/>
            <path class="cls-1" d="M44.8,251.38c3.95,18.43,16.3,33.74,28.27,48.3,8.8,10.7,17.84,21.61,29.67,28.83,11.83,7.22,27.19,10.18,39.63,4.07,15.47-7.6,21.94-26.71,21.52-43.94-.62-25.91-13.92-51.23-34.91-66.44-19.26-13.96-45.33-20.78-56.92-41.55-3.18-5.69-8.24-20.19-17.51-17.46-6.87,2.03-5.03,12.54-5.2,18.05-.72,23.31-9.54,46.83-4.55,70.14Z"/>
            <path class="cls-2" d="M75.28,257.37c1.93,9.93,7.63,18.67,13.67,26.79,4.75,6.39,9.97,12.72,16.95,16.56,6.98,3.84,16.12,4.68,22.67,.15,9.02-6.24,9.58-19.51,6.64-30.07-4.75-17-16.36-31.98-31.63-40.81-3.35-1.94-6.97-3.62-10.83-3.94-14.53-1.2-19.57,20.41-17.45,31.33Z"/>
            <path class="cls-7" d="M271.39,112.78c-5.68,10.46-7.11,23.37-15.26,32.05-4.94,5.26-12.41,9.23-13.46,16.36-.95,6.49,4.08,12.26,9.25,16.29,12.54,9.78,27.77,15.31,42.16,22.08s28.75,15.48,36.81,29.19c10.83,18.41,8.04,41.4,5.78,62.64-.44,4.14-.52,9.08,2.81,11.57,3.3,2.47,8.07,1,11.55-1.2,13.61-8.62,19-25.6,22.26-41.37,5.19-25.1,7.57-50.79,7.07-76.42-.47-24.15-3.56-48.51-12.32-71.02-4.47-11.48-32.04-65.1-48.43-50.6-4.07,3.6-6.7,9.57-10.66,13.56-4.11,4.14-8.69,7.77-13.2,11.46-9.08,7.43-18.67,14.9-24.38,25.41Z"/>
            <path class="cls-1" d="M298,110.13c-9.68,8.12-16.18,19.44-20.83,31.19-1.71,4.33-3.22,9.05-2.09,13.56,2,8.01,10.93,11.71,18.45,15.11,15.59,7.05,29.54,17.68,40.47,30.84,4.17,5.02,9.18,10.99,15.67,10.27,7.95-.89,10.96-10.79,11.59-18.76,1.89-24.12-.97-48.61-8.36-71.65-3.37-10.49-8.75-21.95-20.86-22.06-12.14-.11-24.69,3.67-34.04,11.51Z"/>
            <path class="cls-2" d="M311.8,129.47c-4.56,2.38-7.64,7.37-7.71,12.51-.08,5.55,3.1,10.74,7.29,14.38s9.32,5.98,14.37,8.28c2.04,.93,4.21,1.87,6.44,1.63,4.39-.49,6.95-5.28,7.66-9.64,2.41-14.78-10.99-36.05-28.05-27.15Z"/>
          </g>
          <g>
            <path class="cls-12" d="M220.25,1.22c62.42,37.56,104.88,111.67,104.88,196.93s-42.46,159.37-104.88,196.93c99.04-10.99,176.06-94.97,176.06-196.93S319.29,12.21,220.25,1.22Z"/>
            <path class="cls-13" d="M325.13,198.16c0-85.26-42.46-159.37-104.88-196.93-7.25-.81-14.62-1.22-22.1-1.22C88.72,0,0,88.72,0,198.16s88.72,198.16,198.16,198.16c7.47,0,14.84-.41,22.1-1.22,62.42-37.56,104.88-111.67,104.88-196.93Z"/>
            <ellipse class="cls-8" cx="132.75" cy="127.94" rx="108.05" ry="79.68" transform="translate(-51.5 121.4) rotate(-41.91)"/>
            <ellipse class="cls-9" cx="131.02" cy="107.97" rx="61.61" ry="45.43" transform="translate(-38.61 115.14) rotate(-41.91)"/>
            <ellipse class="cls-10" cx="136.44" cy="95.42" rx="34.03" ry="25.09" transform="translate(-28.83 115.54) rotate(-41.91)"/>
          </g>
        </g>
      </g>
    </g>
  </g>
</svg>