<?xml version="1.0" encoding="UTF-8"?>
<svg xmlns="http://www.w3.org/2000/svg" viewBox="0 0 396.31 396.31">
  <defs>
    <style>
      .cls-1 {
        fill: #f99b8f;
      }

      .cls-2 {
        fill: #fcb6b1;
      }

      .cls-3 {
        fill: #bc4524;
      }

      .cls-4 {
        fill: #a8351b;
      }

      .cls-5 {
        fill: #db5931;
      }

      .cls-6 {
        opacity: .15;
      }

      .cls-6, .cls-7, .cls-8 {
        fill: #fff;
      }

      .cls-7 {
        opacity: .2;
      }

      .cls-9 {
        isolation: isolate;
      }

      .cls-10 {
        mix-blend-mode: multiply;
        opacity: .18;
      }

      .cls-11 {
        opacity: 0;
      }

      .cls-8 {
        opacity: .26;
      }
    </style>
  </defs>
  <g class="cls-9">
    <g id="Lager_2" data-name="Lager 2">
      <g id="Layer_1" data-name="Layer 1">
        <g>
          <g>
            <g>
              <path class="cls-5" d="M392.97,161.76c-3.95-21.29-11.31-41.39-21.49-59.71-2-3.6-4.11-7.12-6.32-10.58-12.03-18.79-27.14-35.42-44.63-49.17C292.28,20.1,257.86,5.39,220.25,1.22c-7.25-.81-14.62-1.22-22.1-1.22-46.14,0-88.59,15.77-122.26,42.21-15.3,12.01-28.78,26.23-39.98,42.17-9.38,13.35-17.15,27.92-23.04,43.41-4.27,11.24-7.56,22.96-9.74,35.08C1.29,173.12,.25,183.65,.05,194.39c-.02,1.25-.05,2.51-.05,3.77,0,9.16,.64,18.17,1.84,27,.42,3.05,.92,6.07,1.48,9.08,2.43,13.2,6.14,25.95,11.05,38.09,5.57,13.79,12.65,26.81,21.03,38.86,9.65,13.87,21.02,26.45,33.82,37.42,20.02,17.17,43.5,30.42,69.25,38.54,18.84,5.95,38.89,9.16,59.7,9.16,7.47,0,14.84-.41,22.1-1.22,3.11-.35,6.21-.76,9.28-1.25,21.78-3.46,42.36-10.48,61.16-20.43,20.2-10.69,38.33-24.77,53.63-41.48,9.75-10.65,18.36-22.37,25.62-34.97,8.12-14.08,14.54-29.25,19.02-45.24,4.6-16.43,7.15-33.71,7.33-51.57,0-.67,.02-1.33,.02-2,0-12.43-1.15-24.6-3.34-36.4Z"/>
              <path class="cls-3" d="M180.74,50.07c-12.91,2.37-25.41,12.48-25.95,25.59-.45,11.12,7.6,20.95,16.88,27.11,9.28,6.16,20.02,9.79,29.45,15.7s17.93,15.19,18.35,26.31c.75,19.84-23.68,34.67-21.16,54.37,2.01,15.72,20.07,23.87,35.83,25.44,28.03,2.78,55.82-5.65,82.72-13.98,11.66-3.61,24.05-7.72,31.58-17.33,7.41-9.46,8.46-23.04,4-34.2-4.46-11.16-13.86-19.92-24.69-25.13-10.44-5.02-23.09-7.67-29.55-17.29-3.09-4.59-4.25-10.16-5.96-15.42-6.88-21.21-24.21-38.38-44.88-46.37-10.08-3.89-18.42-3.92-28.85-3.36-12.7,.68-25.06-3.76-37.77-1.43Z"/>
              <path class="cls-4" d="M218.56,102.07c4.65,3.54,10.01,6.08,14.63,9.65,9.3,7.2,15.25,20.12,10.79,31-3.79,9.25-14.41,16.4-12.97,26.29,.92,6.31,6.91,10.9,13.14,12.24,6.23,1.34,12.69,.13,18.95-1.09,7-1.36,15.24-3.79,17.29-10.62,1.66-5.56-1.73-11.21-3.24-16.82-2.11-7.85-.49-16.16-.64-24.28-.26-14.11-6.16-28.05-16.13-38.05-9.06-9.09-25.08-17.74-38.42-16.89-16.69,1.06-13.66,20.76-3.4,28.56Z"/>
              <path class="cls-3" d="M179.16,222.47c4.51,6.35,11.8,10.01,18.67,13.68,6.87,3.67,13.98,7.95,17.54,14.88,2.83,5.5,3.03,11.94,3.17,18.12,.17,7.43-.79,16.66-7.7,19.39-8.23,3.25-15.81-5.84-24.27-8.44-7.24-2.23-15.06,.53-21.75,4.07-6.7,3.54-13.15,7.96-20.59,9.39-10.52,2.01-21.15-2.31-30.7-7.15-10.16-5.16-20.37-11.43-26.2-21.22-5.83-9.79-5.73-23.95,3.03-31.24,7.58-6.31,18.77-5.72,27.55-10.23,7.05-3.62,12.01-10.24,16.33-16.88,4.31-6.64,8.35-13.66,14.36-18.82,6.02-5.15,14.65-8.13,21.99-5.15,17.55,7.12,.05,27.6,8.57,39.6Z"/>
              <path class="cls-3" d="M153.12,312.15c6.31-4.82,11.8-11.25,19.42-13.47,12.53-3.65,24.89,5.34,37.6,8.27,12.7,2.93,26-.29,38.3-4.61,12.3-4.32,24.37-9.78,37.3-11.5,12.92-1.72,27.32,1.02,35.99,10.76,4.51,5.07,6.97,13.15,2.84,18.53-3.45,4.49-10.15,5.4-13.73,9.79-3.09,3.8-3.07,9.17-4.51,13.85-2.72,8.79-10.84,15.08-19.59,17.92-8.75,2.84-18.15,2.76-27.34,2.44-9.19-.31-18.52-.81-27.48,1.26-11.99,2.77-23.67,10.11-35.69,7.5-5.36-1.17-10.11-4.24-15.33-5.93-7.87-2.55-16.36-1.83-24.62-2.11-15.58-.52-31.03-4.71-44.73-12.14-6.83-3.7-14.82-9.37-15.63-17.81-.65-6.78,2.95-13.1,9.86-13.62,7.2-.55,14.27,1.96,21.64,1.11,9.27-1.06,18.28-4.57,25.7-10.25Z"/>
              <path class="cls-4" d="M183.38,345.51c9.76,2.17,19.41,5.26,29.4,5.6,11.54,.39,22.89-2.91,34.41-3.5,7.78-.4,15.9,.39,23.08-2.64,7.18-3.02,12.77-11.83,8.99-18.65-2.41-4.34-7.75-6.29-12.71-6.26s-9.75,1.65-14.57,2.78c-16.61,3.89-33.93,2.05-50.99,1.59-14.17-.39-40.99-1.02-51.36,11.12-5.91,6.91,1.15,9.83,7.13,9.12,9.32-1.11,17.31-1.23,26.63,.84Z"/>
            </g>
            <path class="cls-1" d="M176.2,3.85c29.98-4.3,61.29,1.33,87.89,15.8,2.79,1.52,5.76,3.42,6.61,6.48,1.2,4.29-2.66,8.63-6.97,9.74-4.31,1.11-8.83-.07-13.17-1.06-9.7-2.21-19.61-3.53-29.55-3.93-7.31-.29-14.71-.08-21.79,1.75-5.83,1.5-11.37,4.09-17.29,5.13-10.66,1.88-21.52-1.34-32.35-1.36-8.82-.02-17.64,2.08-26.39,.97-4.5-.57-9.67-2.87-10.24-7.37-.33-2.62,1.13-5.21,3.13-6.92,3.22-2.76,7.68-3.84,11.56-5.35,5.25-2.04,10.53-4,15.87-5.79,10.65-3.57,21.55-6.49,32.68-8.09Z"/>
            <path class="cls-2" d="M186.4,6.03c15.08-.58,30.15,2.37,44.44,7.24,1.85,.63,3.76,1.34,5.11,2.76,1.35,1.42,1.93,3.76,.79,5.35-1.27,1.78-3.86,1.8-6.05,1.69-11.85-.63-23.77-.03-35.5,1.79-7.44,1.15-14.93,2.8-22.42,2.04-6.91-.71-13.72-3.46-20.6-2.52-1.6,.22-3.18,.64-4.79,.56-3.98-.18-5.77-3.98-2.56-6.42,3.58-2.72,8.44-4.72,12.59-6.41,9.19-3.75,19.08-5.7,28.99-6.08Z"/>
          </g>
          <g>
            <path class="cls-10" d="M220.25,1.22c62.42,37.56,104.88,111.67,104.88,196.93s-42.46,159.37-104.88,196.93c99.04-10.99,176.06-94.97,176.06-196.93S319.29,12.21,220.25,1.22Z"/>
            <path class="cls-11" d="M325.13,198.16c0-85.26-42.46-159.37-104.88-196.93-7.25-.81-14.62-1.22-22.1-1.22C88.72,0,0,88.72,0,198.16s88.72,198.16,198.16,198.16c7.47,0,14.84-.41,22.1-1.22,62.42-37.56,104.88-111.67,104.88-196.93Z"/>
            <ellipse class="cls-6" cx="132.75" cy="127.94" rx="108.05" ry="79.68" transform="translate(-51.5 121.4) rotate(-41.91)"/>
            <ellipse class="cls-7" cx="131.02" cy="107.97" rx="61.61" ry="45.43" transform="translate(-38.61 115.14) rotate(-41.91)"/>
            <ellipse class="cls-8" cx="136.44" cy="95.42" rx="34.03" ry="25.09" transform="translate(-28.83 115.54) rotate(-41.91)"/>
          </g>
        </g>
      </g>
    </g>
  </g>
</svg>