<?xml version="1.0" encoding="UTF-8"?>
<svg xmlns="http://www.w3.org/2000/svg" viewBox="0 0 396.31 396.31">
  <defs>
    <style>
      .cls-1 {
        fill: #baa393;
      }

      .cls-2 {
        fill: #bfb5af;
      }

      .cls-3 {
        fill: #aa9b93;
      }

      .cls-4 {
        opacity: .15;
      }

      .cls-4, .cls-5, .cls-6 {
        fill: #fff;
      }

      .cls-5 {
        opacity: .2;
      }

      .cls-7 {
        isolation: isolate;
      }

      .cls-8 {
        mix-blend-mode: multiply;
        opacity: .18;
      }

      .cls-9 {
        opacity: 0;
      }

      .cls-6 {
        opacity: .26;
      }
    </style>
  </defs>
  <g class="cls-7">
    <g id="Lager_2" data-name="Lager 2">
      <g id="Layer_1" data-name="Layer 1">
        <g>
          <g>
            <path class="cls-1" d="M396.31,198.16c0,101.96-77.02,185.95-176.06,196.93-7.25,.81-14.62,1.22-22.1,1.22-52.21,0-99.71-20.19-135.1-53.2C24.26,306.94,0,255.38,0,198.16,0,88.72,88.72,0,198.16,0c7.47,0,14.84,.41,22.1,1.22,20.47,2.27,40.01,7.66,58.11,15.69,69.48,30.79,117.95,100.36,117.95,181.25Z"/>
            <path class="cls-3" d="M321.17,232.63c-33.22,19.77-83.23-.47-110.26,27.15-22.09,22.55-13.3,63.08-33.91,87-15.6,18.09-43.09,20.42-66.49,15.58-16.92-3.5-32.92-10.15-47.46-19.25C24.26,306.94,0,255.38,0,198.16,0,88.72,88.72,0,198.16,0c7.47,0,14.84,.41,22.1,1.22,20.47,2.27,40.01,7.66,58.11,15.69,21.5,11.07,39.78,26.3,50.12,45.76,22.99,43.29,45.62,138.47-7.31,169.96Z"/>
            <path class="cls-3" d="M276.55,263.1c-21.27,1.24-43.68,9.95-54.38,28.37-5.83,10.04-7.61,21.86-11.58,32.77-8.17,22.45-25.26,40.3-41.89,57.44,33.72,7.92,70.09,4.08,101.42-10.71,31.32-14.79,57.4-40.44,72.7-71.52,6.59-13.38,10.55-29.72-7.29-32.13-19.02-2.57-39.77-5.34-58.99-4.22Z"/>
            <path class="cls-2" d="M199.19,103.99c-6.56-8.29-7.75-21.33-.62-29.12,7.14-7.79,22.64-6.13,26.03,3.88-3.45-14.51-17.15-25.95-32.05-26.75-14.9-.8-29.75,9.09-34.74,23.15-1.33,3.74-2.04,7.75-4.11,11.13-5.66,9.24-18.74,10.14-29.42,8.3-10.68-1.83-22.02-5.26-32-1.02-14.07,5.97-17.3,28.09-5.53,37.84-2.45-5.15,.26-11.68,4.94-14.94,4.68-3.26,10.75-3.83,16.43-3.28,19.47,1.87,37.33,17.29,40.41,36.61,3.08,19.31-10.28,40.32-29.45,44.22-19.16,3.9-40.4-11.66-41.03-31.2-9.42,3.79-14.06,15.56-11.56,25.4,2.5,9.84,10.81,17.47,20.23,21.27,9.42,3.79,19.86,4.22,30,3.62,19.07-1.13,40.34-7.61,48.6-24.84,6.89-14.37,4.2-34.82,17.87-43.02,12.57-7.55,28.4,1.99,43.06,1.51,14.73-.48,28.16-12.81,29.9-27.44,1.74-14.63-8.42-29.77-22.62-33.7,8.78,2.43-.81,22.5-5.8,25.22-9.37,5.1-22.16,1.25-28.54-6.81Z"/>
            <path class="cls-2" d="M80.78,263.22c.77,6.53,4,12.61,8.35,17.53,8.75,9.9,22.7,15.35,35.64,12.69,12.94-2.66,23.97-13.99,25.06-27.15-9.05,9.88-22.83,15.22-36.17,14-7.91-.72-16.52-4.58-18.85-12.17-1.89-6.19,1.24-13.19,6.46-17.02,5.22-3.82,12.08-4.84,18.52-4.14,6.42,.71,12.25,3.23,18.37,4.98-7.57-26.55-60.73-17.32-57.36,11.27Z"/>
            <path class="cls-2" d="M213.07,228.63c15.09-4.42,31.52-.58,46.86-4.04,14.27-3.22,27.28-13.61,31.44-27.63,4.16-14.02-2.16-31.05-15.45-37.16,9.83,7.99,10.4,24.58,1.76,33.84-8.64,9.26-24.39,10.22-34.65,2.8s-14.39-21.9-10.52-33.96c-6.41,4.21-8.34,12.78-8.17,20.44,.17,7.67,1.88,15.4,.45,22.93-1.73,9.17-8.36,17.26-17,20.77-10.65,4.33-24.48,2.52-31.96,11.25-4.74,5.53-5.1,13.62-3.81,20.79,1.29,7.17,3.98,14.1,4.5,21.37,1.03,14.55-7.7,29.31-20.95,35.4,13.71-6.31,24.18-17.18,26.97-32.51,1.27-6.96-1.76-12.94-.38-19.89,1.49-7.5,5.07-14.59,9.97-20.43,5.47-6.52,12.74-11.58,20.94-13.98Z"/>
            <path class="cls-3" d="M371.57,247.63c8.81-5.27,15.36-14.18,17.76-24.16,1.31-5.45,1.31-11.57-1.81-16.22-4.78-7.12-14.64-8.18-23.2-8.56-3.5-.16-7.16-.28-10.33,1.21-3.17,1.49-5.62,5.15-4.52,8.47,4.93-5.61,14.61-5.51,20.13-.47,5.52,5.04,6.8,13.77,3.94,20.68s-9.26,11.97-16.35,14.33c-7.2,2.4-14.49,1.93-21.89,1.16,4.02,3.84,8,8.13,13.71,8.95,6.15,.89,17.94-.77,22.55-5.38Z"/>
            <path class="cls-2" d="M321.02,292.14c4.84,9.78,1.97,22.62-6.27,29.77-8.24,7.15-21.01,8.28-30.62,3.11,7,2.11,15.13-.62,19.6-6.4,4.47-5.79,5.08-14.21,1.69-20.69-3.39-6.47-10.55-10.73-17.86-10.84-5.57-.08-11.27,2.26-14.7,6.65,7.92-19.33,38.85-20.41,48.15-1.6Z"/>
            <path class="cls-2" d="M279.34,347.16c-7.62,5.38-18.63,6.04-26.22,.62s-10.37-17.01-5.17-24.74,18.08-9.07,24.06-1.92c-2.43-8.7-11.79-14.88-20.74-13.68s-16.37,9.6-16.43,18.64c-.06,8.29,5.28,16.09,4.37,24.33-.91,8.2-8.02,14.63-15.83,17.27-8.44,2.85-17.19,.44-25.36,2.23,24.68,16.63,62.1-9.19,81.31-22.74Z"/>
          </g>
          <g>
            <path class="cls-8" d="M220.25,1.22c62.42,37.56,104.88,111.67,104.88,196.93s-42.46,159.37-104.88,196.93c99.04-10.99,176.06-94.97,176.06-196.93S319.29,12.21,220.25,1.22Z"/>
            <path class="cls-9" d="M325.13,198.16c0-85.26-42.46-159.37-104.88-196.93-7.25-.81-14.62-1.22-22.1-1.22C88.72,0,0,88.72,0,198.16s88.72,198.16,198.16,198.16c7.47,0,14.84-.41,22.1-1.22,62.42-37.56,104.88-111.67,104.88-196.93Z"/>
            <ellipse class="cls-4" cx="132.75" cy="127.94" rx="108.05" ry="79.68" transform="translate(-51.5 121.4) rotate(-41.91)"/>
            <ellipse class="cls-5" cx="131.02" cy="107.97" rx="61.61" ry="45.43" transform="translate(-38.61 115.14) rotate(-41.91)"/>
            <ellipse class="cls-6" cx="136.44" cy="95.42" rx="34.03" ry="25.09" transform="translate(-28.83 115.54) rotate(-41.91)"/>
          </g>
        </g>
      </g>
    </g>
  </g>
</svg>