<?xml version="1.0" encoding="UTF-8"?>
<svg xmlns="http://www.w3.org/2000/svg" viewBox="0 0 396.31 396.31">
  <defs>
    <style>
      .cls-1 {
        fill: #1388e8;
      }

      .cls-2 {
        fill: #2295f4;
      }

      .cls-3 {
        fill: #1e96f9;
      }

      .cls-4 {
        fill: #0781e5;
      }

      .cls-5 {
        fill: #097dcc;
      }

      .cls-6 {
        fill: #0b80e0;
      }

      .cls-7 {
        fill: #0b82f9;
      }

      .cls-8 {
        fill: #0b7ddb;
      }

      .cls-9 {
        fill: #389fe5;
      }

      .cls-10 {
        opacity: .15;
      }

      .cls-10, .cls-11, .cls-12 {
        fill: #fff;
      }

      .cls-11 {
        opacity: .2;
      }

      .cls-13 {
        isolation: isolate;
      }

      .cls-14 {
        mix-blend-mode: multiply;
        opacity: .18;
      }

      .cls-15 {
        opacity: 0;
      }

      .cls-12 {
        opacity: .26;
      }
    </style>
  </defs>
  <g class="cls-13">
    <g id="Lager_2" data-name="Lager 2">
      <g id="Layer_1" data-name="Layer 1">
        <g>
          <g>
            <path class="cls-7" d="M220.25,1.22c-7.25-.81-14.62-1.22-22.1-1.22-38.43,0-74.31,10.95-104.68,29.89,78.06,6.1,156.13,12.2,234.19,18.3C298.17,22.7,261.09,5.75,220.25,1.22Z"/>
            <path class="cls-4" d="M364.05,89.76c-106.64-13.11-214.3-17.82-321.68-14.08-8.68,11.02-16.2,22.99-22.41,35.71,121.06,5.2,242.12,10.4,363.18,15.6-5.06-13.15-11.48-25.62-19.09-37.24Z"/>
            <path class="cls-6" d="M198.16,396.31c7.47,0,14.84-.41,22.1-1.22,33.95-3.77,65.31-16.11,91.87-34.82-85.18-.62-170.31-8.06-254.31-22.23,35.88,35.99,85.51,58.27,140.34,58.27Z"/>
            <path class="cls-3" d="M364.05,89.76c-10.15-15.5-22.42-29.49-36.39-41.56-78.06-6.1-156.13-12.2-234.19-18.3-19.58,12.21-36.88,27.72-51.1,45.78,107.37-3.74,215.04,.97,321.68,14.08Z"/>
            <path class="cls-2" d="M345.09,331.1c-102.71,6.58-206.2,.92-307.56-16.9,6.13,8.48,12.92,16.45,20.29,23.85,84,14.17,169.13,21.61,254.31,22.23,12.05-8.48,23.1-18.28,32.97-29.17Z"/>
            <path class="cls-8" d="M345.09,331.1c9.6-10.61,18.07-22.26,25.22-34.77-117.27,6.07-235.09,1.42-351.51-13.87,5.27,11.19,11.55,21.81,18.74,31.73,101.36,17.82,204.85,23.49,307.56,16.9Z"/>
            <path class="cls-7" d="M395.39,217.35c.61-6.32,.92-12.72,.92-19.2,0-25.08-4.67-49.07-13.17-71.16-121.06-5.2-242.12-10.4-363.18-15.6C9.23,133.4,2.45,157.69,.55,183.34c129.69,26.64,262.5,38.06,394.84,34.01Z"/>
            <path class="cls-1" d="M370.31,296.33c13.54-23.7,22.34-50.45,25.09-78.98-132.34,4.05-265.15-7.37-394.84-34.01-.36,4.89-.55,9.83-.55,14.81,0,30.15,6.75,58.72,18.79,84.31,116.43,15.29,234.25,19.94,351.51,13.87Z"/>
            <path class="cls-4" d="M80.71,227.56c-6.79,.15-14.85,1.19-17.92,7.25-2.5,4.95-.16,11.24,3.95,14.96s9.59,5.46,14.89,7.1c45.31,14.01,92.61,27.95,139.45,20.54,7.32-1.16,16.11-4.47,16.84-11.84,.62-6.23-5.11-11.1-10.44-14.37-20.89-12.8-41.73-16.64-65.37-19.49-27.02-3.25-54.19-4.74-81.41-4.16Z"/>
            <path class="cls-9" d="M95.34,254.06c3.31,2.52,7.25,4.04,11.16,5.45,23.55,8.46,48.38,13.81,73.4,13.83,5.04,0,11.06-.8,13.31-5.31-15.68,2.18-31.69,.68-47.16-2.64-15.48-3.32-30.5-8.42-45.49-13.52-2.46-.84-4.99-1.71-6.96-3.4-1.97-1.69-3.28-4.42-2.55-6.92-.85,2.91-2.65,2.09-1.07,5.88,1.1,2.64,3.1,4.9,5.36,6.62Z"/>
            <path class="cls-5" d="M101.5,247.34c2.24,2.05,5.17,3.14,8.03,4.15,27.62,9.79,56.73,17.48,85.93,15.02,3.31-.28,7.06-.96,8.79-3.8,1.8-2.95,.38-7.01-2.24-9.26-2.62-2.25-6.12-3.14-9.48-3.94-14.2-3.41-28.45-6.61-42.83-9.14-13.87-2.44-28.92-5.44-43.05-5.18-7.12,.13-11,6.78-5.15,12.14Z"/>
          </g>
          <g>
            <path class="cls-14" d="M220.25,1.22c62.42,37.56,104.88,111.67,104.88,196.93s-42.46,159.37-104.88,196.93c99.04-10.99,176.06-94.97,176.06-196.93S319.29,12.21,220.25,1.22Z"/>
            <path class="cls-15" d="M325.13,198.16c0-85.26-42.46-159.37-104.88-196.93-7.25-.81-14.62-1.22-22.1-1.22C88.72,0,0,88.72,0,198.16s88.72,198.16,198.16,198.16c7.47,0,14.84-.41,22.1-1.22,62.42-37.56,104.88-111.67,104.88-196.93Z"/>
            <ellipse class="cls-10" cx="132.75" cy="127.94" rx="108.05" ry="79.68" transform="translate(-51.5 121.4) rotate(-41.91)"/>
            <ellipse class="cls-11" cx="131.02" cy="107.97" rx="61.61" ry="45.43" transform="translate(-38.61 115.14) rotate(-41.91)"/>
            <ellipse class="cls-12" cx="136.44" cy="95.42" rx="34.03" ry="25.09" transform="translate(-28.83 115.54) rotate(-41.91)"/>
          </g>
        </g>
      </g>
    </g>
  </g>
</svg>