<?xml version="1.0" encoding="UTF-8"?>
<svg xmlns="http://www.w3.org/2000/svg" viewBox="0 0 396.31 396.31">
  <defs>
    <style>
      .cls-1 {
        fill: #edb7a9;
      }

      .cls-2 {
        fill: #d8775d;
      }

      .cls-3 {
        fill: #e2a291;
      }

      .cls-4 {
        fill: #d69078;
      }

      .cls-5 {
        isolation: isolate;
      }

      .cls-6 {
        mix-blend-mode: multiply;
        opacity: .18;
      }

      .cls-7 {
        opacity: 0;
      }

      .cls-8 {
        opacity: .3;
      }

      .cls-8, .cls-9, .cls-10 {
        fill: #fff;
      }

      .cls-9 {
        opacity: .25;
      }

      .cls-10 {
        opacity: .4;
      }
    </style>
  </defs>
  <g class="cls-5">
    <g id="Lager_2" data-name="Lager 2">
      <g id="Layer_1" data-name="Layer 1">
        <g>
          <g>
            <path class="cls-1" d="M396.31,198.16c0,.66-.02,1.33-.02,2-.18,17.85-2.73,35.14-7.33,51.57-4.48,15.99-10.91,31.16-19.02,45.24-7.26,12.59-15.87,24.32-25.63,34.97-15.29,16.71-33.43,30.79-53.63,41.48-18.81,9.95-39.39,16.97-61.17,20.43-3.07,.49-6.16,.9-9.27,1.25-7.25,.81-14.62,1.22-22.1,1.22-20.81,0-40.85-3.21-59.7-9.16-25.75-8.13-49.23-21.37-69.25-38.54-11-9.45-20.96-20.08-29.68-31.7-1.41-1.89-2.8-3.8-4.15-5.73-8.38-12.04-15.46-25.06-21.03-38.85-4.91-12.15-8.62-24.89-11.04-38.09-.56-3-1.07-6.03-1.48-9.08-1.2-8.83-1.84-17.84-1.84-27,0-1.26,.03-2.51,.05-3.77,.2-10.74,1.24-21.27,3.09-31.52,2.17-12.11,5.46-23.84,9.73-35.07,5.89-15.5,13.66-30.06,23.05-43.42,11.2-15.93,24.67-30.16,39.98-42.16C109.57,15.77,152.02,0,198.16,0c7.47,0,14.84,.41,22.1,1.22,37.6,4.17,72.03,18.87,100.28,41.08,5.48,4.31,10.74,8.92,15.74,13.77,10.93,10.63,20.63,22.5,28.89,35.4,2.21,3.45,4.33,6.97,6.33,10.57,10.18,18.31,17.53,38.42,21.48,59.71,2.19,11.8,3.35,23.96,3.35,36.4Z"/>
            <path class="cls-4" d="M316.47,156.79c-32.71,2.89-49.51-23.64-80.8-26.93-73.11-7.7-77.95,57.23-71.18,84.65,3.49,14.13,30.43,51.9,28.86,66.37-2.92,26.85-24.41,36.86-49.67,46.41-33.81,12.79-73.44,8.57-104.14-10.38-1.41-1.89-2.8-3.8-4.15-5.73-8.38-12.04-15.46-25.06-21.03-38.85-4.91-12.15-8.62-24.89-11.04-38.09-.56-3-1.07-6.03-1.48-9.08-1.2-8.83-1.84-17.84-1.84-27,0-1.26,.03-2.51,.05-3.77,.2-10.74,1.24-21.27,3.09-31.52,2.17-12.11,5.46-23.84,9.73-35.07,5.89-15.5,13.66-30.06,23.05-43.42,11.2-15.93,24.67-30.16,39.98-42.16C109.57,15.77,152.02,0,198.16,0c7.47,0,14.84,.41,22.1,1.22,37.6,4.17,72.03,18.87,100.28,41.08,5.48,4.31,10.74,8.92,15.74,13.77,2.63,6.15,4.52,12.62,5.54,19.36,4.56,30.24,5.12,78.66-25.34,81.35Z"/>
            <path class="cls-2" d="M81.25,184.69c10.3,1.01,20.7-.22,31.02,.55,10.32,.76,21.12,3.93,27.8,11.84,7.39,8.75,8.14,21.14,12.43,31.76,6.9,17.04,23.48,31.04,22.7,49.41-.52,12.27-9.28,23.04-20,29.02-10.72,5.98-23.19,7.92-35.42,9.07-15.54,1.46-31.42,1.78-46.54-2.09-15.12-3.87-29.54-12.33-38.02-25.43-7.55-11.65-9.85-25.83-11.98-39.56-3.64-23.44-7.27-46.87-10.91-70.31-.97-6.23-1.9-12.81,.43-18.67,7.93-19.96,20.54,.01,28.07,6.64,11.22,9.88,25.52,16.3,40.42,17.76Z"/>
            <path class="cls-3" d="M238.73,15.35c15.98,5.86,29.69,16.49,43.11,26.97,10.06,7.85,20.25,15.83,27.81,26.11,7.76,10.55,12.06,26.19,3.64,36.22-7.26,8.64-20.86,8.93-31.27,4.58-10.41-4.35-18.84-12.28-28.28-18.47-24.97-16.36-57.9-19.88-85.76-9.16-14.96,5.76-28.42,15.3-43.89,19.47-15.48,4.17-34.89,1.02-42.63-13.02-16.85-30.54,25.57-52.26,48.03-60.22,34.55-12.25,72.94-25.79,109.24-12.48Z"/>
          </g>
          <g>
            <path class="cls-6" d="M220.25,1.22c62.42,37.56,104.88,111.67,104.88,196.93s-42.46,159.37-104.88,196.93c99.04-10.99,176.06-94.97,176.06-196.93S319.29,12.21,220.25,1.22Z"/>
            <path class="cls-7" d="M325.13,198.16c0-85.26-42.46-159.37-104.88-196.93-7.25-.81-14.62-1.22-22.1-1.22C88.72,0,0,88.72,0,198.16s88.72,198.16,198.16,198.16c7.47,0,14.84-.41,22.1-1.22,62.42-37.56,104.88-111.67,104.88-196.93Z"/>
            <ellipse class="cls-9" cx="132.75" cy="127.94" rx="108.05" ry="79.68" transform="translate(-51.5 121.4) rotate(-41.91)"/>
            <ellipse class="cls-8" cx="131.02" cy="107.97" rx="61.61" ry="45.43" transform="translate(-38.61 115.14) rotate(-41.91)"/>
            <ellipse class="cls-10" cx="136.44" cy="95.42" rx="34.03" ry="25.09" transform="translate(-28.83 115.54) rotate(-41.91)"/>
          </g>
        </g>
      </g>
    </g>
  </g>
</svg>