<?xml version="1.0" encoding="UTF-8"?>
<svg xmlns="http://www.w3.org/2000/svg" viewBox="0 0 670.42 396.41">
  <defs>
    <style>
      .cls-1 {
        fill: none;
      }

      .cls-2 {
        fill: #f4b990;
      }

      .cls-3 {
        fill: #edd4c3;
      }

      .cls-4 {
        fill: #edc3a4;
      }

      .cls-5 {
        fill: #ba8d6e;
      }

      .cls-6 {
        fill: #ceaa91;
      }

      .cls-7 {
        fill: #ceaa93;
      }

      .cls-8 {
        fill: #cea080;
      }

      .cls-9 {
        fill: #cca68b;
      }

      .cls-10 {
        fill: #d1beb2;
      }

      .cls-11 {
        fill: #d3c0b4;
      }

      .cls-12 {
        fill: #d3b49f;
      }

      .cls-13 {
        fill: #c6afa1;
      }

      .cls-14 {
        fill: #ddb294;
      }

      .cls-15 {
        fill: #544032;
      }

      .cls-16 {
        isolation: isolate;
      }

      .cls-17 {
        mix-blend-mode: multiply;
        opacity: .18;
      }

      .cls-18 {
        opacity: 0;
      }

      .cls-19 {
        opacity: .3;
      }

      .cls-19, .cls-20, .cls-21 {
        fill: #fff;
      }

      .cls-20 {
        opacity: .25;
      }

      .cls-21 {
        opacity: .4;
      }
    </style>
  </defs>
  <g class="cls-16">
    <g id="Lager_2" data-name="Lager 2">
      <g id="Layer_1" data-name="Layer 1">
        <g>
          <g>
            <g>
              <path class="cls-4" d="M231.15,39.76c-7.27,2.41-14.74,4.16-22.29,5.6,15.24-12.57,32.62-23.07,51.91-30.86,6.93-2.8,13.92-5.18,20.94-7.15,3.02-.85,6.04-1.62,9.07-2.32-18.26,14.51-37.63,27.45-59.63,34.73Z"/>
              <path class="cls-12" d="M314.8,288.19c31.1-13.36,63.78-22.6,96.36-31.79,40.19-11.35,80.39-22.7,120.58-34.05-.51,4.08-1.14,8.14-1.9,12.18-38.54,7.5-75.63,26.25-110.95,44.64-37.44,19.49-74.92,39.01-113.74,55.6-25.56,10.93-51.65,20.56-77.9,29.73-13.7-8.86-26.37-19.46-37.63-31.61,16.13-.77,32.31-4.6,47.57-10,26.72-9.46,51.56-23.5,77.6-34.69Z"/>
              <path class="cls-4" d="M290.44,255.36c38.44-11.82,79.43-14.22,117.32-27.71,43.67-15.55,81.54-45.2,121.53-68.72,4.31,21.22,5.03,42.61,2.46,63.41-40.19,11.35-80.39,22.7-120.58,34.05-32.58,9.2-65.26,18.43-96.36,31.79-26.04,11.19-50.88,25.23-77.6,34.69-15.26,5.4-31.44,9.23-47.57,10-8.17-8.82-15.62-18.46-22.17-28.87,41.69-11.59,81.01-35.74,122.99-48.65Z"/>
              <path class="cls-4" d="M429.32,372.51c-6.42,3.47-13.1,6.61-20.03,9.41-27.55,11.14-56.14,15.63-83.99,14.24,51.26-20.62,102.53-41.23,153.79-61.85-14.17,15.02-30.86,27.99-49.77,38.19Z"/>
              <path class="cls-2" d="M390.44,350.05c38.92-17.39,77.14-36.86,116.45-53.21-7.72,13.46-17.03,26.06-27.8,37.48-51.26,20.62-102.53,41.23-153.79,61.85-15.39-.77-30.55-3.32-45.18-7.55,37.85-8.41,74.83-22.7,110.32-38.56Z"/>
              <path class="cls-10" d="M377.49,321.29c45.7-21,93.74-36.28,141.98-50.67-3.55,9.02-7.75,17.79-12.57,26.21-39.31,16.36-77.53,35.82-116.45,53.21-35.49,15.86-72.47,30.14-110.32,38.56-9.97-2.88-19.68-6.56-29.07-10.96,44.05-12.84,84.48-37.08,126.43-56.36Z"/>
              <path class="cls-8" d="M305.16,334.76c38.81-16.59,76.3-36.11,113.74-55.6,35.32-18.39,72.41-37.14,110.95-44.64-2.32,12.36-5.8,24.45-10.38,36.1-48.24,14.39-96.28,29.66-141.98,50.67-41.95,19.28-82.38,43.52-126.43,56.36-8.21-3.84-16.17-8.22-23.8-13.16,26.25-9.17,52.34-18.8,77.9-29.73Z"/>
              <path class="cls-6" d="M249.11,223.36c24.88-10.87,52.07-14.98,78.48-21.28,67.22-16.04,129.69-46.38,190.38-79.97,.26,.62,.52,1.22,.77,1.84,4.66,11.53,8.15,23.24,10.54,35-39.99,23.52-77.86,53.17-121.53,68.72-37.89,13.49-78.88,15.88-117.32,27.71-41.97,12.91-81.3,37.06-122.99,48.65-5.55-8.82-10.47-18.19-14.68-28.07,34.04-11.33,62.82-37.94,96.34-52.59Z"/>
              <path class="cls-5" d="M284.75,108.32c24.21-16.57,42.21-41.07,66.71-57.21,21.08-13.88,46.15-21.04,68.95-31.71,13.03,6.22,25.4,13.86,36.85,22.82-16.89,5.23-33.78,10.45-50.67,15.68-15.82,4.89-31.78,9.85-46.15,18.08-16.26,9.32-29.91,22.51-43.43,35.49-31.55,30.29-66.35,61.67-109.63,67.98-13.18,1.92-26.71,1.41-39.65,4.54-11.16,2.7-21.32,7.95-30.91,14.32,0-14.87,1.68-29.6,4.94-43.91,24.69-1.5,49.58-9.01,73.42-16.48,24.14-7.57,48.68-15.32,69.55-29.61Z"/>
              <path class="cls-9" d="M214.67,77.82c-13.04,7.66-24.7,17.72-38.53,23.82-5.51,2.43-11.21,4.18-17.04,5.4,12.12-23.42,28.93-44.5,49.76-61.69,7.56-1.44,15.02-3.19,22.29-5.6,22-7.28,41.37-20.22,59.63-34.73C312.27,.08,333.99-1.13,355.15,1.05c-10.95,8.83-20.22,20.03-31.36,28.77-31.39,24.63-74.71,27.79-109.11,48Z"/>
              <path class="cls-13" d="M239.07,103.06c-17.96,7.88-37.44,11.48-56.33,16.74-12.06,3.36-24.16,7.57-34.98,13.74,3.14-9.09,6.92-17.95,11.34-26.5,5.83-1.23,11.53-2.97,17.04-5.4,13.83-6.1,25.49-16.16,38.53-23.82,34.4-20.21,77.72-23.37,109.11-48,11.14-8.74,20.41-19.95,31.36-28.77,11.24,1.16,22.32,3.27,33.12,6.3-30.96,15.93-60.59,34.45-88.44,55.34-19.5,14.63-38.43,30.58-60.75,40.38Z"/>
              <path class="cls-14" d="M420.41,19.4c-22.8,10.67-47.87,17.83-68.95,31.71-24.5,16.13-42.51,40.64-66.71,57.21-20.88,14.29-45.41,22.04-69.55,29.61-23.85,7.47-48.74,14.98-73.42,16.48,1.61-7.07,3.63-14.04,5.99-20.87,10.82-6.17,22.92-10.38,34.98-13.74,18.89-5.26,38.37-8.86,56.33-16.74,22.32-9.8,41.25-25.75,60.75-40.38,27.85-20.89,57.48-39.41,88.44-55.34,11.05,3.09,21.81,7.13,32.15,12.06Z"/>
              <path class="cls-7" d="M331.6,138.2c48.56-25.92,96.02-54.25,145.55-78.1,5.19,5.34,10.11,10.97,14.71,16.93-2.37,2.26-4.68,4.57-6.95,6.9-15.15,15.52-29.39,32.45-47.93,43.69-16.42,9.95-35.3,14.88-53.8,20.03-83.11,23.15-164.26,53.35-242.3,90.12-1.86-9.07-3.06-18.17-3.63-27.25,68.57-10.29,133.07-39.61,194.36-72.32Z"/>
              <path class="cls-11" d="M167.74,184c12.94-3.13,26.47-2.62,39.65-4.54,43.28-6.32,78.08-37.69,109.63-67.98,13.52-12.98,27.16-26.17,43.43-35.49,14.36-8.23,30.33-13.19,46.15-18.08,16.89-5.23,33.78-10.45,50.67-15.68,7,5.47,13.63,11.45,19.88,17.88-49.53,23.85-96.99,52.18-145.55,78.1-61.29,32.71-125.79,62.03-194.36,72.32-.26-4.08-.4-8.15-.4-12.21,9.59-6.37,19.75-11.62,30.91-14.32Z"/>
              <path class="cls-3" d="M383.17,147.65c18.5-5.15,37.38-10.08,53.8-20.03,18.55-11.24,32.79-28.17,47.93-43.69,2.27-2.32,4.58-4.63,6.95-6.9,10.42,13.51,19.26,28.58,26.12,45.07-60.69,33.6-123.16,63.94-190.38,79.97-26.41,6.3-53.6,10.41-78.48,21.28-33.52,14.64-62.3,41.26-96.34,52.59-.49-1.15-.98-2.31-1.46-3.48-3.43-8.49-6.22-17.09-8.41-25.72-.76-2.99-1.42-5.98-2.03-8.97,78.04-36.78,159.19-66.97,242.3-90.12Z"/>
            </g>
            <g>
              <path class="cls-17" d="M281.71,7.34c71.95,11.43,139.08,64.23,171.04,143.28,31.95,79.05,20.36,163.67-23.43,221.89,87.7-47.3,127.64-154.03,89.43-248.56C480.53,29.41,377.65-19.59,281.71,7.34Z"/>
              <path class="cls-18" d="M452.75,150.62C420.8,71.57,353.66,18.78,281.71,7.34c-7.03,1.97-14.01,4.35-20.94,7.15-101.46,41.01-150.47,156.51-109.45,257.98,41.01,101.46,156.51,150.47,257.98,109.45,6.93-2.8,13.61-5.95,20.03-9.41,43.79-58.22,55.39-142.84,23.43-221.89Z"/>
              <ellipse class="cls-20" cx="248.07" cy="157.62" rx="108.05" ry="79.68" transform="translate(-2.55 311.14) rotate(-63.92)"/>
              <ellipse class="cls-19" cx="238.99" cy="139.76" rx="61.61" ry="45.43" transform="translate(8.4 292.98) rotate(-63.92)"/>
              <ellipse class="cls-21" cx="239.31" cy="126.08" rx="34.03" ry="25.09" transform="translate(20.86 285.6) rotate(-63.92)"/>
            </g>
          </g>
          <g>
            <g>
              <path class="cls-1" d="M518.93,124.39c4.66,11.53,8.15,23.24,10.54,35,1.15,5.64,2.03,11.29,2.67,16.93,33.49-28.65,50.13-55.48,42.47-74.44-7.66-18.96-38.28-26.69-82.28-24.02,10.3,13.41,19.04,28.35,25.83,44.68,.26,.62,.52,1.22,.77,1.84Z"/>
              <path class="cls-14" d="M667.86,64.19c-15.5-38.34-98.42-43.65-207.95-19.53,2.87,2.32,5.69,4.72,8.44,7.22,93.34-18.23,162.74-11.94,176.33,21.68,13.59,33.62-31.93,86.36-111.7,138.1-.25,3.7-.59,7.38-1.04,11.05,95.5-58.76,151.42-120.19,135.93-158.52Z"/>
              <path class="cls-5" d="M632.99,78.28c12.63,31.24-27.8,79.65-99.73,127.78-.07,1.87-.17,3.74-.29,5.6,79.77-51.74,125.29-104.48,111.7-138.1-13.59-33.62-82.99-39.92-176.33-21.68,1.38,1.26,2.76,2.53,4.11,3.82,85.18-15.38,147.91-8.67,160.54,22.58Z"/>
              <path class="cls-7" d="M478.47,61.75c72.95-11.28,125.83-4.05,137.01,23.61,11.18,27.65-21.81,69.59-82.08,112.16,.02,2.85-.03,5.7-.14,8.54,71.93-48.13,112.36-96.54,99.73-127.78-12.63-31.25-75.36-37.96-160.54-22.58,1.65,1.59,3.28,3.2,4.88,4.85,.38,.4,.76,.8,1.14,1.2Z"/>
              <path class="cls-11" d="M603.8,90.08c10.2,25.23-17.96,62.86-70.51,101.61,.07,1.95,.1,3.89,.11,5.83,60.27-42.57,93.26-84.51,82.08-112.16-11.18-27.66-64.07-34.89-137.01-23.61,1.34,1.4,2.66,2.83,3.97,4.27,64.75-8.66,111.17-1.17,121.37,24.06Z"/>
              <path class="cls-6" d="M603.8,90.08c-10.2-25.23-56.62-32.72-121.37-24.06,1.34,1.48,2.65,2.98,3.95,4.51,56.5-6.16,96.54,1.5,105.74,24.27,9.2,22.76-14.25,56.09-59.14,90.91,.13,1.99,.24,3.99,.31,5.98,52.55-38.75,80.71-76.38,70.51-101.61Z"/>
              <path class="cls-15" d="M492.33,77.87c44-2.67,74.61,5.06,82.28,24.02,7.66,18.96-8.98,45.78-42.47,74.44,.36,3.13,.64,6.27,.84,9.39,44.89-34.82,68.34-68.15,59.14-90.91-9.2-22.77-49.24-30.43-105.74-24.27,1.93,2.27,3.83,4.58,5.66,6.95,.1,.13,.19,.26,.29,.38Z"/>
            </g>
            <g>
              <path class="cls-1" d="M95.82,295.42c7.66,18.96,38.27,26.68,82.26,24.02-3.69-4.8-7.17-9.79-10.44-14.98-5.55-8.82-10.47-18.19-14.68-28.07-.49-1.15-.98-2.31-1.46-3.48-3.43-8.49-6.22-17.09-8.41-25.72-.76-2.99-1.42-5.98-2.03-8.97-1.18-5.74-2.09-11.5-2.74-17.25-33.51,28.66-50.15,55.49-42.49,74.46Z"/>
              <path class="cls-14" d="M25.75,323.74c-13.59-33.62,31.94-86.37,111.72-138.12,.25-3.7,.6-7.38,1.05-11.05C43,233.34-12.93,294.78,2.56,333.12c15.5,38.34,98.42,43.65,207.94,19.53-2.87-2.32-5.69-4.73-8.44-7.22-93.33,18.23-162.72,11.93-176.31-21.69Z"/>
              <path class="cls-5" d="M37.43,319.02c-12.63-31.25,27.81-79.66,99.75-127.79,.07-1.87,.17-3.74,.29-5.6C57.69,237.37,12.16,290.12,25.75,323.74c13.59,33.62,82.98,39.91,176.31,21.69-1.39-1.26-2.76-2.53-4.11-3.82-85.18,15.38-147.9,8.66-160.53-22.58Z"/>
              <path class="cls-7" d="M37.43,319.02c12.63,31.25,75.35,37.96,160.53,22.58-2.05-1.97-4.05-3.99-6.02-6.05-72.93,11.27-125.81,4.04-136.99-23.61-11.18-27.65,21.82-69.59,82.09-112.17,0-.34-.02-.67-.02-1.01,0-2.52,.07-5.03,.16-7.53-71.94,48.13-112.38,96.55-99.75,127.79Z"/>
              <path class="cls-11" d="M187.96,331.29c-64.73,8.65-111.14,1.16-121.33-24.07-10.2-25.23,17.97-62.87,70.53-101.63-.07-1.94-.11-3.88-.12-5.82-60.27,42.57-93.27,84.51-82.09,112.17,11.18,27.66,64.06,34.89,136.99,23.61-.71-.74-1.43-1.47-2.13-2.23-.62-.67-1.23-1.36-1.85-2.04Z"/>
              <path class="cls-6" d="M78.3,302.5c-9.2-22.77,14.26-56.1,59.16-90.93-.01-.2-.03-.4-.04-.6-.11-1.79-.2-3.59-.26-5.38-52.57,38.76-80.73,76.4-70.53,101.63,10.2,25.23,56.61,32.72,121.33,24.07-1.34-1.48-2.66-2.98-3.95-4.51-56.48,6.15-96.5-1.51-105.7-24.28Z"/>
              <path class="cls-15" d="M95.82,295.42c-7.67-18.96,8.98-45.8,42.49-74.46-.36-3.13-.64-6.26-.84-9.39-44.9,34.83-68.37,68.16-59.16,90.93,9.2,22.76,49.23,30.43,105.7,24.28-2.03-2.39-4.01-4.84-5.93-7.34-43.99,2.67-74.59-5.06-82.26-24.02Z"/>
            </g>
            <g>
              <path class="cls-14" d="M373.42,293.18c-60.85,24.6-119.76,42.17-171.36,52.25,2.75,2.49,5.57,4.89,8.44,7.22,50.89-11.21,107.52-28.77,165.8-52.33,58.3-23.56,111.23-50.3,155.62-77.61,.45-3.67,.8-7.35,1.04-11.05-44.11,28.61-98.69,56.92-159.55,81.52Z"/>
              <path class="cls-5" d="M371.98,289.62c-62.18,25.13-122.25,42.64-174.03,51.99,1.35,1.3,2.73,2.57,4.11,3.82,51.6-10.08,110.51-27.65,171.36-52.25,60.86-24.6,115.44-52.91,159.55-81.52,.12-1.86,.22-3.73,.29-5.6-43.73,29.26-99.1,58.42-161.28,83.56Z"/>
              <path class="cls-7" d="M369.82,284.27c-64.25,25.97-126.12,43.29-177.88,51.29,1.97,2.06,3.97,4.08,6.02,6.05,51.78-9.35,111.85-26.85,174.03-51.99,62.18-25.14,117.55-54.29,161.28-83.56,.11-2.84,.15-5.69,.14-8.54-42.79,30.22-99.32,60.77-163.58,86.74Z"/>
              <path class="cls-11" d="M533.4,197.52c-.01-1.94-.04-3.88-.11-5.83-41.85,30.86-99.15,62.43-164.91,89.01-65.75,26.58-128.89,43.7-180.42,50.59,.61,.68,1.23,1.37,1.85,2.04,.7,.75,1.42,1.49,2.13,2.23,51.76-8,113.63-25.32,177.88-51.29,64.27-25.98,120.79-56.52,163.58-86.74Z"/>
              <path class="cls-6" d="M366.94,277.13c-67.37,27.23-131.87,44.09-182.93,49.65,1.29,1.53,2.62,3.03,3.95,4.51,51.53-6.89,114.67-24.01,180.42-50.59,65.76-26.58,123.07-58.15,164.91-89.01-.07-1.99-.18-3.98-.31-5.98-40.58,31.48-98.68,64.18-166.05,91.42Z"/>
              <path class="cls-15" d="M364.77,271.78c-70.15,28.36-136.98,44.65-186.7,47.66,1.92,2.5,3.9,4.95,5.93,7.34,51.06-5.56,115.56-22.42,182.93-49.65,67.37-27.23,125.46-59.94,166.05-91.42-.21-3.13-.48-6.26-.84-9.39-37.85,32.38-97.22,67.11-167.37,95.46Z"/>
            </g>
          </g>
        </g>
      </g>
    </g>
  </g>
</svg>