<?xml version="1.0" encoding="UTF-8"?>
<svg xmlns="http://www.w3.org/2000/svg" viewBox="0 0 650.9 396.31">
  <defs>
    <style>
      .cls-1 {
        fill: none;
      }

      .cls-2 {
        fill: #71d3db;
      }

      .cls-3 {
        fill: #acedef;
      }

      .cls-4 {
        fill: #4ec8d8;
      }

      .cls-5 {
        opacity: .15;
      }

      .cls-5, .cls-6, .cls-7 {
        fill: #fff;
      }

      .cls-6 {
        opacity: .2;
      }

      .cls-8 {
        isolation: isolate;
      }

      .cls-9 {
        mix-blend-mode: multiply;
        opacity: .18;
      }

      .cls-10 {
        opacity: 0;
      }

      .cls-7 {
        opacity: .26;
      }
    </style>
  </defs>
  <g class="cls-8">
    <g id="Lager_2" data-name="Lager 2">
      <g id="Layer_1" data-name="Layer 1">
        <g>
          <path class="cls-2" d="M349.07,157.93c-.35,4.37-5.45,6.46-9.74,7.33-12.2,2.48-24.97,2.8-37.51,1.28,1.57-9.78,3.85-19.32,6.79-28.56,10.39,3.66,20.79,7.32,31.19,10.98,4.39,1.55,9.64,4.34,9.28,8.97Z"/>
          <path class="cls-1" d="M184.56,198.1c0-2.12,.03-4.21,.11-6.31,.26-8.57,1.07-17,2.4-25.25,.45-2.79,.96-5.55,1.52-8.3-74.44,13.69-122.34,35.07-122.34,59.1,0,25.4,53.55,47.85,135.41,61.38-3.48-7.8-6.48-15.88-8.94-24.18-5.3-17.89-8.15-36.83-8.15-56.44Z"/>
          <g>
            <g>
              <path class="cls-4" d="M523.61,198.16c0,35.59-9.39,69-25.83,97.87-3.72,6.55-7.81,12.87-12.24,18.92-20.17,27.61-47.31,49.8-78.83,63.99-18.4,8.29-38.29,13.84-59.17,16.16-5.07,.57-10.19,.93-15.36,1.11-2.23,.08-4.48,.12-6.73,.12-52.8,0-100.77-20.65-136.28-54.31-12.79-12.11-23.96-25.9-33.15-41.04-.68-1.12-1.35-2.23-2-3.36-1.03-1.77-2.04-3.56-3.01-5.37-6.42-11.87-11.66-24.47-15.57-37.65-5.3-17.89-8.15-36.83-8.15-56.44,0-2.12,.03-4.21,.11-6.31,.26-8.57,1.07-17,2.4-25.25,1.57-9.78,3.85-19.32,6.79-28.56,.85-2.68,1.75-5.33,2.71-7.96,2.69-7.38,5.82-14.54,9.34-21.47,9.87-19.47,22.86-37.08,38.33-52.18,7.9-7.72,16.45-14.79,25.56-21.12C244.56,13.04,283.48,0,325.45,0c7.47,0,14.84,.41,22.1,1.22,34.07,3.78,65.54,16.2,92.15,35.01,6.01,4.25,11.78,8.83,17.28,13.71,6.42,5.69,12.46,11.8,18.08,18.29,4.55,5.23,8.84,10.72,12.82,16.41,7.76,11.08,14.41,22.98,19.8,35.56,2.24,5.22,4.26,10.55,6.05,16,2.74,8.33,4.93,16.9,6.56,25.67,1.02,5.48,1.81,11.05,2.37,16.7,.63,6.44,.95,12.98,.95,19.58Z"/>
              <path class="cls-2" d="M497.78,296.02c-3.72,6.55-7.81,12.87-12.24,18.92-29.68,5-60,6.13-89.96,3.25,5.89,1.13,10.99,5.65,12.81,11.35-34.11,.86-68.21,1.71-102.32,2.57,12.51,2.42,25.02,4.85,37.53,7.26-50.49,11.98-103.57,12.8-154.44,2.63-12.79-12.11-23.96-25.9-33.15-41.04,2.08-.38,4.15-.78,6.22-1.16-2.74-.73-5.48-1.46-8.22-2.19-1.03-1.77-2.04-3.56-3.01-5.37,25.05-3.65,50.98,3.2,76.01,8.74,28.28,6.26,59.4,10.52,84.94-3.15-10.64-2.91-21.28-5.8-31.93-8.71,28.08-4.57,56.15-9.14,84.22-13.72-23.39-5.43-46.79-10.86-70.17-16.29,61.87-9.42,125.32-8.37,186.84,3.1-7.91,3.87-15.81,7.74-23.72,11.62,9.66,1,19.32,2.01,28.99,3.02-10.57,.84-20.95,4.07-30.14,9.38,13.9,3.26,27.81,6.51,41.72,9.77Z"/>
              <path class="cls-2" d="M495.8,198.38c-28.69,9.29-58.39,15.54-88.39,18.61,11.18-.3,22.45,3,31.63,9.41-64.03,14.43-132.57-8.81-195.92,8.35,5.29,2.75,10.59,5.5,15.88,8.25-15.43,2.55-30.87,5.1-46.3,7.66l19.31,11.05c-32.18-2.38-64.37-4.74-96.56-7.12-5.3-17.89-8.15-36.83-8.15-56.44,0-2.12,.03-4.21,.11-6.31,21.59,1.92,43.03,5.47,64.07,10.64,9.23,2.27,18.92,4.85,28.1,2.35,5.11-1.39,9.67-4.28,14.14-7.13,14.84-9.45,29.68-18.89,44.53-28.34-25.13-4.15-49.33-13.82-70.37-28.17,63.06-4.96,126.57-4.31,189.51,1.95-20.68,2.95-41.22,6.89-61.52,11.79,9.17,5.09,18.34,10.17,27.51,15.26-19.46,2.8-38.92,5.6-58.38,8.41,36.43,9.25,74.52,11.95,111.9,7.91,3.43-.38,7.1-.89,9.71-3.16,2.62-2.27,3.42-6.92,.71-9.06-2.8-2.22-8.18-1.25-9.14-4.69-.92-3.36,3.82-5.16,7.29-5.34,31.56-1.71,63.28-3.41,94.84-2.39,1.02,5.48,1.81,11.05,2.37,16.7-16.25,4.23-32.72,7.58-49.34,10.04,8.48-.77,17.25,3.03,22.48,9.76Z"/>
              <path class="cls-2" d="M513.73,136.2c-24.9,3.66-50.19,4.78-75.33,3.28,3.3-3.62,6.59-7.23,9.88-10.85-15.23-.47-30.45-.95-45.69-1.42-1.77-.06-3.76-.21-4.91-1.57-2.85-3.38,3.05-7.43,7.47-7.3,4.42,.12,10.58-.13,11.07-4.53-63.62-8.15-128.27-8.19-191.91-.13,9.18,3.67,18.35,7.34,27.53,11.01-37.51,1.8-75.03,3.59-112.54,5.39,2.69-7.38,5.82-14.54,9.34-21.47,17.33,.51,34.66,1.03,51.98,1.55-3.62-1.1-6.24-5.77-5.14-9.69,1.38-4.9,6.58-7.87,11.63-8.46,5.05-.6,10.11,.65,15.14,1.43,13.72,2.14,27.96,.79,41.04-3.89-8.01-3.69-16.04-7.39-24.06-11.08,46.57-.78,93.17,.31,139.65,3.24-9.98,5.31-19.95,10.63-29.93,15.94,43.78-1,87.63,1.52,131.01,7.51-6.57,3.74-13.14,7.48-19.71,11.23,15.8,1.27,31.61,2.53,47.41,3.8,2.24,5.22,4.26,10.55,6.05,16Z"/>
              <path class="cls-2" d="M428.58,83.85c.55,.11,1.1,.21,1.65,.31-.53,.1-1.1,0-1.65-.31Z"/>
              <path class="cls-2" d="M487.88,84.64c-19.06,3.1-38.64,2.94-57.65-.48,2.36-.4,4.13-4.24,2.62-6.65-1.86-2.95-5.77-3.66-9.22-4.11-27.67-3.5-55.34-7.01-83.01-10.52,7.65-4.55,15.3-9.11,22.96-13.67-30.19-5.51-61.12-6.91-91.68-4.14,2.31,2.58,6.25,2.75,9.69,2.4,3.44-.37,7.09-1.05,10.23,.41,3.13,1.46,4.86,6.24,2.15,8.4-1.25,.99-2.97,1.09-4.58,1.13-15.49,.43-30.98,.53-46.48,.28-18.02-.28-37.27,.14-55.93-1.26,7.9-7.72,16.45-14.79,25.56-21.12,13.85,2.42,27.7,4.83,41.55,7.24-1.75-4.1,1.09-8.98,5.03-11.06,3.93-2.08,8.6-2.08,13.05-2.03,55.91,.59,111.95,1.19,167.53,6.78,6.01,4.25,11.78,8.83,17.28,13.71-2.81,1.11-5.84,1.84-8.71,2.31-8.15,1.35-17.45,2.54-22.19,9.29,16.33,2.23,32.66,4.45,48.98,6.69,4.55,5.23,8.84,10.72,12.82,16.41Z"/>
            </g>
            <g>
              <path class="cls-9" d="M347.55,1.22c62.42,37.56,104.88,111.67,104.88,196.93s-42.46,159.37-104.88,196.93c99.04-10.99,176.06-94.97,176.06-196.93S446.59,12.21,347.55,1.22Z"/>
              <path class="cls-10" d="M452.42,198.16c0-85.26-42.46-159.37-104.88-196.93-7.25-.81-14.62-1.22-22.1-1.22C216.01,0,127.29,88.72,127.29,198.16s88.72,198.16,198.16,198.16c7.47,0,14.84-.41,22.1-1.22,62.42-37.56,104.88-111.67,104.88-196.93Z"/>
              <ellipse class="cls-5" cx="260.04" cy="127.94" rx="108.05" ry="79.68" transform="translate(-18.94 206.43) rotate(-41.91)"/>
              <ellipse class="cls-6" cx="258.31" cy="107.97" rx="61.61" ry="45.43" transform="translate(-6.04 200.17) rotate(-41.91)"/>
              <ellipse class="cls-7" cx="263.73" cy="95.42" rx="34.03" ry="25.09" transform="translate(3.73 200.57) rotate(-41.91)"/>
            </g>
          </g>
          <g>
            <path class="cls-1" d="M522.65,178.51c.63,6.44,.95,12.98,.95,19.58,0,28.7-6.11,55.99-17.1,80.61,81.86-13.53,135.41-35.97,135.41-61.38,0-24.03-47.91-45.41-122.36-59.1,.24,1.19,.5,2.38,.73,3.58,1.02,5.48,1.81,11.05,2.37,16.7Z"/>
            <path class="cls-3" d="M650.9,217.33c0-25.36-51.88-47.85-131.9-61.87,.2,.92,.37,1.84,.56,2.77,74.45,13.69,122.36,35.07,122.36,59.1,0,25.41-53.55,47.85-135.41,61.38-.41,.93-.84,1.85-1.26,2.77,87.78-13.78,145.65-37.37,145.65-64.15Z"/>
            <path class="cls-3" d="M8.98,217.33c0-24.03,47.9-45.41,122.34-59.1,.19-.93,.38-1.85,.58-2.77C51.88,169.49,0,191.98,0,217.33c0,26.78,57.88,50.37,145.66,64.15-.43-.92-.86-1.84-1.28-2.77C62.53,265.18,8.98,242.74,8.98,217.33Z"/>
            <path class="cls-3" d="M325.45,292.17c-67.34,0-129.76-4.98-181.07-13.46,.42,.93,.85,1.85,1.28,2.77,51.51,8.09,113.32,12.8,179.79,12.8s128.28-4.72,179.8-12.81c.43-.92,.85-1.84,1.26-2.77-51.3,8.48-113.72,13.45-181.06,13.45Z"/>
          </g>
        </g>
      </g>
    </g>
  </g>
</svg>