<?xml version="1.0" encoding="UTF-8"?>
<svg xmlns="http://www.w3.org/2000/svg" viewBox="0 0 396.31 396.31">
  <defs>
    <style>
      .cls-1 {
        fill: #fff3e9;
      }

      .cls-2 {
        fill: #83c7ff;
      }

      .cls-3 {
        fill: #86b7d1;
      }

      .cls-4 {
        fill: #b8daf2;
      }

      .cls-5 {
        fill: #8bb4d1;
      }

      .cls-6 {
        fill: #8dbfe0;
      }

      .cls-7 {
        fill: #d8d1ce;
      }

      .cls-8 {
        fill: #acbfcc;
      }

      .cls-9 {
        fill: #77a6c6;
      }

      .cls-10 {
        opacity: .15;
      }

      .cls-10, .cls-11, .cls-12 {
        fill: #fff;
      }

      .cls-11 {
        opacity: .2;
      }

      .cls-13 {
        isolation: isolate;
      }

      .cls-14 {
        mix-blend-mode: multiply;
        opacity: .18;
      }

      .cls-15 {
        opacity: 0;
      }

      .cls-12 {
        opacity: .26;
      }
    </style>
  </defs>
  <g class="cls-13">
    <g id="Lager_2" data-name="Lager 2">
      <g id="Layer_1" data-name="Layer 1">
        <g>
          <g>
            <path class="cls-6" d="M391.45,154.35c-.07-.3-.13-.61-.2-.9-.24-1.05-.49-2.09-.75-3.13-.08-.31-.15-.63-.24-.94-.26-1.04-.53-2.08-.81-3.11-.08-.28-.15-.55-.23-.82-.3-1.08-.6-2.16-.91-3.23-.03-.11-.06-.21-.1-.32-1.11-3.74-2.31-7.44-3.63-11.08,0-.02,0-.03-.02-.04-.36-1-.73-1.99-1.11-2.98-.13-.33-.25-.65-.37-.97-.36-.9-.71-1.81-1.08-2.7-.16-.4-.32-.81-.49-1.2-.35-.87-.71-1.72-1.08-2.58-.18-.42-.37-.86-.55-1.28-.37-.84-.74-1.67-1.12-2.51-.19-.42-.38-.85-.58-1.26-.39-.85-.78-1.68-1.18-2.52-.17-.38-.36-.74-.54-1.11-.42-.89-.86-1.77-1.3-2.65-.05-.09-.09-.17-.13-.26-.97-1.92-1.98-3.82-3.01-5.7-124.6,7.56-248.42,27.8-368.95,60.27-.06,.35-.13,.7-.19,1.05-.16,.95-.33,1.91-.48,2.88-.11,.69-.2,1.39-.31,2.09-.11,.76-.21,1.51-.32,2.27-.11,.79-.2,1.57-.3,2.36-.08,.62-.14,1.24-.22,1.87-.37,3.31-.65,6.64-.87,9.98,0,.25-.03,.49-.04,.74-.07,1.14-.12,2.29-.17,3.44,0,.26-.02,.52-.03,.78-.04,1.2-.08,2.4-.11,3.61-.02,1.26-.05,2.51-.05,3.77,0,1.49,.03,2.98,.06,4.46,0,.31,.02,.62,.03,.93,130.68-15.38,261.35-30.75,392.03-46.13-.21-1.03-.44-2.05-.67-3.07Z"/>
            <path class="cls-4" d="M368.45,96.79c-.04-.08-.09-.14-.12-.21-1.03-1.72-2.08-3.41-3.16-5.1h0c-.74-1.15-1.49-2.29-2.24-3.42-.03-.04-.06-.09-.09-.13-.74-1.11-1.5-2.21-2.26-3.3-.05-.06-.09-.12-.12-.18-.76-1.08-1.53-2.15-2.31-3.22-.05-.06-.1-.13-.14-.18-.78-1.07-1.58-2.14-2.38-3.18-.04-.05-.08-.1-.12-.15-.83-1.07-1.65-2.13-2.49-3.17,0-.02-.03-.04-.04-.05-4.29-5.37-8.88-10.49-13.69-15.38-57.34-2.49-115.62,6.43-171.48,20.71-52.67,13.47-103.97,31.53-155.39,49.26-.36,.97-.73,1.95-1.08,2.92,0,.03,0,.05-.02,.07-.49,1.39-.97,2.78-1.42,4.17-.03,.07-.05,.13-.07,.2-.44,1.36-.88,2.72-1.3,4.1-.04,.12-.07,.24-.11,.37-.4,1.33-.79,2.65-1.16,3.99l-.14,.55c-.36,1.29-.7,2.58-1.03,3.88-.07,.24-.12,.47-.17,.7-.32,1.27-.63,2.53-.92,3.81-.04,.17-.07,.35-.11,.52-.67,2.96-1.26,5.96-1.8,8.98,120.53-32.46,244.36-52.7,368.95-60.27-1.16-2.11-2.35-4.21-3.59-6.27Z"/>
            <path class="cls-7" d="M395.57,215.14c.42-4.94,.68-9.93,.73-14.97h0c0-.68,.02-1.35,.02-2.01,0-1.57,0-3.14-.05-4.69-.02-.86-.06-1.72-.1-2.58-.02-.68-.04-1.38-.07-2.06-.06-1.17-.13-2.35-.2-3.51-.03-.37-.04-.72-.07-1.08-.1-1.37-.21-2.72-.33-4.08-.02-.15-.03-.32-.04-.47-.14-1.49-.3-2.97-.46-4.44,0-.03,0-.05,0-.07-.66-5.71-1.57-11.34-2.7-16.9-.05-.23-.1-.46-.14-.69-.01-.05-.02-.1-.03-.16C261.44,172.8,130.76,188.18,.08,203.55c0,.14,0,.29,.01,.43,.04,1.14,.08,2.29,.13,3.42,.03,.74,.07,1.47,.12,2.21,.05,.89,.11,1.77,.16,2.66,.06,.83,.13,1.64,.19,2.46,.04,.43,.08,.87,.12,1.3,.45,5,1.09,9.95,1.9,14.83,58.16-9.75,118.14-10.92,177.33-11.96,71.84-1.26,143.67-2.51,215.51-3.77Z"/>
            <path class="cls-2" d="M292.35,23.79c-.21-.11-.42-.22-.63-.33-1.64-.89-3.32-1.75-4.99-2.59-.15-.08-.31-.16-.47-.24-.74-.38-1.5-.73-2.25-1.1-.43-.21-.87-.41-1.3-.63-.72-.34-1.44-.67-2.16-1-.47-.22-.95-.43-1.43-.65-1.15-.51-2.31-1.02-3.47-1.51-.61-.26-1.21-.52-1.83-.77-.64-.27-1.29-.53-1.93-.79-.61-.24-1.2-.48-1.8-.71-.63-.25-1.27-.49-1.91-.73-.66-.25-1.33-.5-1.99-.74-.58-.21-1.15-.42-1.74-.63-1.15-.41-2.32-.81-3.49-1.2-.51-.17-1.02-.34-1.54-.5-.79-.25-1.57-.51-2.36-.75-.55-.17-1.1-.34-1.65-.51-.81-.24-1.64-.48-2.45-.71-.48-.14-.97-.29-1.46-.42-1.25-.35-2.51-.69-3.77-1.01-.37-.1-.73-.18-1.1-.28-.97-.24-1.95-.48-2.93-.71-.48-.12-.96-.22-1.44-.34-.93-.21-1.87-.41-2.8-.61-.43-.1-.86-.19-1.29-.28-1.34-.27-2.67-.53-4.02-.78-.19-.04-.38-.07-.59-.11-1.17-.21-2.36-.41-3.54-.61-.43-.07-.88-.13-1.31-.2-1-.15-2-.3-3-.44-.42-.06-.84-.12-1.25-.17-1.39-.18-2.78-.36-4.18-.51-7.25-.81-14.62-1.22-22.1-1.22-1.59,0-3.17,.02-4.75,.06-.51,.02-1.02,.04-1.53,.05-1.08,.04-2.15,.08-3.22,.12-.59,.03-1.17,.06-1.76,.1-1,.06-2,.12-3,.19-.6,.04-1.18,.09-1.78,.12-1.02,.09-2.04,.18-3.05,.28-.55,.05-1.1,.1-1.64,.15-1.21,.13-2.42,.27-3.64,.41-.33,.05-.66,.08-.99,.12-1.54,.2-3.06,.41-4.58,.64-.43,.07-.85,.13-1.28,.2-1.1,.18-2.19,.36-3.29,.55-.56,.1-1.12,.2-1.67,.31-.96,.17-1.92,.36-2.89,.55-.59,.12-1.16,.24-1.75,.37-.94,.19-1.89,.4-2.83,.62-.57,.13-1.13,.25-1.69,.38-1.03,.24-2.05,.49-3.07,.75-.46,.12-.91,.22-1.38,.34-1.45,.38-2.9,.77-4.35,1.18-.3,.08-.59,.17-.88,.25-1.16,.34-2.33,.68-3.48,1.04-.52,.16-1.04,.33-1.56,.49-.92,.3-1.85,.6-2.76,.9-.57,.18-1.13,.38-1.7,.58-.88,.3-1.75,.61-2.62,.92-.57,.2-1.13,.4-1.68,.61-.9,.34-1.81,.68-2.7,1.03-.51,.19-1.02,.38-1.52,.59-1.16,.46-2.31,.93-3.46,1.41-.23,.1-.46,.19-.69,.29-1.36,.58-2.7,1.16-4.04,1.77-.48,.21-.95,.43-1.42,.65-.88,.4-1.76,.81-2.64,1.23-.55,.26-1.09,.52-1.63,.79-.81,.39-1.61,.79-2.4,1.19-.56,.28-1.11,.56-1.65,.85-.8,.41-1.6,.84-2.4,1.27-.52,.27-1.04,.55-1.56,.83-.89,.49-1.79,1-2.67,1.5-.4,.23-.81,.45-1.21,.68-1.25,.72-2.5,1.46-3.74,2.21-.39,.24-.79,.49-1.19,.74-.86,.53-1.72,1.06-2.57,1.61-.51,.32-1,.64-1.5,.96-.75,.49-1.49,.97-2.23,1.47-.52,.35-1.03,.69-1.55,1.05-.72,.49-1.44,.99-2.15,1.49-.5,.36-1,.7-1.5,1.07-.76,.54-1.51,1.09-2.26,1.64-.44,.33-.89,.64-1.32,.97-1.15,.87-2.29,1.73-3.42,2.63-1.72,1.36-3.42,2.74-5.1,4.16-.36,.3-.71,.6-1.06,.89-3.38,2.88-6.65,5.86-9.82,8.95-.26,.26-.52,.51-.78,.77-.36,.36-.72,.71-1.06,1.07-2.89,2.87-5.68,5.82-8.37,8.87-.13,.16-.28,.32-.42,.48-3.12,3.55-6.11,7.2-8.97,10.98-.05,.06-.1,.12-.13,.17-2.64,3.47-5.16,7.04-7.56,10.69-.09,.13-.18,.27-.27,.41-3.04,4.63-5.87,9.4-8.52,14.29,22.3-9.78,44.32-20.81,66.55-30.2,64.22-27.12,132.61-41,201.98-49.95Z"/>
            <path class="cls-1" d="M339.28,59.1c-6.63-6.73-13.73-13.01-21.26-18.74-.12-.09-.23-.17-.36-.27-2.28-1.73-4.6-3.41-6.95-5.03-1.18-.82-2.39-1.63-3.59-2.42-.18-.12-.38-.24-.56-.37-.85-.55-1.69-1.11-2.55-1.64,0,0-.03-.02-.04-.03-1.89-1.18-3.78-2.35-5.7-3.47-.02,0-.03-.02-.04-.03-.83-.48-1.64-.95-2.47-1.41-.29-.16-.58-.33-.87-.49-.79-.44-1.59-.89-2.4-1.33-.05-.03-.1-.05-.15-.08-69.37,8.94-137.76,22.83-201.98,49.95-22.23,9.39-44.25,20.42-66.55,30.2-.23,.43-.48,.86-.71,1.3-.02,.05-.04,.09-.07,.12-3.84,7.22-7.23,14.72-10.17,22.44-.16,.43-.31,.85-.47,1.28,51.42-17.72,102.73-35.79,155.39-49.26,55.86-14.28,114.14-23.2,171.48-20.71Z"/>
            <path class="cls-9" d="M344.33,331.93c.94-1.02,1.85-2.06,2.76-3.1-44.86-6.41-89.43-19.36-133.58-30.33-62.82-15.61-130.38-27-192.01-10.53,3.27,6.43,6.88,12.65,10.81,18.65h0c1,1.54,2.03,3.05,3.07,4.56h0c.51,.74,1.03,1.46,1.55,2.18,69.42-9.37,141.18,10.14,209.43,29.58,21.22,6.04,42.52,12.12,63.59,18.81,12.57-8.61,24.1-18.62,34.36-29.82Z"/>
            <path class="cls-5" d="M36.95,313.36c3.15,4.39,6.46,8.66,9.94,12.79,.05,.05,.09,.1,.13,.14,4.01,4.72,8.23,9.26,12.67,13.59,.12,.12,.25,.24,.38,.37,3.35,3.26,6.82,6.39,10.39,9.41,8.95-3.22,18.75-4.53,28.27-4.21,18.65,.63,36.64,6.7,54.3,12.72,31.36,10.68,62.73,21.36,94.09,32.04,.51-.13,1.02-.26,1.53-.39,.64-.17,1.29-.35,1.93-.52,.77-.21,1.53-.42,2.29-.63,.58-.17,1.15-.34,1.73-.51,.82-.24,1.63-.49,2.43-.74,.47-.14,.94-.3,1.41-.44,.9-.3,1.81-.59,2.71-.89,.19-.07,.38-.13,.57-.19,4.84-1.64,9.59-3.46,14.26-5.45,.12-.06,.25-.11,.38-.16,1.09-.46,2.17-.94,3.25-1.43,.17-.08,.34-.15,.51-.23,1.07-.48,2.13-.98,3.18-1.48,.17-.08,.34-.16,.5-.24,1.08-.52,2.15-1.04,3.21-1.58l.35-.17c1.12-.57,2.22-1.14,3.33-1.72h0c6.66-3.52,13.09-7.42,19.27-11.66-21.07-6.69-42.37-12.77-63.59-18.81-68.25-19.44-140.01-38.95-209.43-29.58Z"/>
            <path class="cls-2" d="M98.73,345.45c-9.51-.32-19.31,1-28.27,4.21,.83,.7,1.65,1.39,2.49,2.08,.08,.06,.14,.12,.21,.17,1.19,.97,2.4,1.92,3.61,2.87,.13,.1,.25,.19,.38,.29,1.16,.89,2.34,1.79,3.52,2.65,.16,.12,.34,.25,.5,.37,1.15,.85,2.31,1.67,3.47,2.49,.2,.14,.4,.28,.6,.41,1.14,.8,2.29,1.58,3.45,2.35,.22,.15,.45,.3,.67,.44,1.14,.75,2.29,1.49,3.44,2.22,.25,.15,.49,.31,.74,.46,1.14,.71,2.3,1.41,3.45,2.11,.26,.15,.52,.31,.79,.46,1.15,.67,2.32,1.35,3.48,2,.27,.15,.54,.31,.81,.45,1.17,.65,2.35,1.29,3.54,1.91,.27,.14,.54,.29,.82,.43,1.19,.63,2.4,1.24,3.6,1.84,.27,.13,.54,.27,.81,.4,1.22,.6,2.45,1.18,3.68,1.76,.26,.12,.53,.25,.79,.37,1.26,.59,2.52,1.14,3.79,1.7,.25,.11,.49,.21,.73,.32,1.31,.56,2.62,1.11,3.93,1.64,.21,.09,.43,.17,.64,.26,1.37,.55,2.74,1.08,4.12,1.6,.17,.07,.35,.13,.52,.19,1.44,.54,2.9,1.06,4.36,1.57,.12,.04,.21,.08,.33,.12,1.56,.54,3.14,1.06,4.71,1.55t.02,0c.89,.28,1.79,.55,2.68,.82,.46,.14,.92,.28,1.39,.41,.87,.25,1.73,.5,2.61,.74,.48,.13,.97,.27,1.45,.39,2.86,.77,5.73,1.47,8.63,2.12,.62,.13,1.24,.27,1.86,.4,.78,.16,1.55,.32,2.33,.47,.69,.13,1.39,.27,2.09,.4,.72,.13,1.44,.27,2.16,.39,1.32,.23,2.63,.45,3.95,.65,.59,.1,1.17,.17,1.76,.26,.89,.13,1.8,.26,2.7,.38,.63,.09,1.25,.16,1.89,.24,.92,.12,1.86,.22,2.78,.32,.56,.06,1.12,.12,1.67,.17,1.45,.14,2.9,.28,4.35,.39,.3,.02,.59,.04,.88,.06,1.23,.09,2.47,.16,3.71,.23,.5,.03,1,.05,1.51,.08,1.09,.05,2.17,.09,3.27,.12,.47,0,.94,.03,1.41,.04,1.54,.04,3.07,.06,4.61,.06,7.47,0,14.84-.41,22.1-1.22,1.56-.17,3.12-.37,4.66-.57,.05,0,.09-.02,.12-.02,1.51-.21,3-.42,4.5-.66,1.42-.23,2.85-.47,4.26-.73,.55-.1,1.09-.21,1.64-.31,.88-.17,1.76-.34,2.64-.52,.64-.13,1.29-.27,1.92-.4,.77-.17,1.54-.34,2.31-.51,.69-.15,1.38-.32,2.07-.48,.7-.17,1.4-.35,2.11-.52,.22-.05,.43-.11,.65-.17-31.36-10.68-62.73-21.36-94.09-32.04-17.67-6.02-35.65-12.09-54.3-12.72Z"/>
            <path class="cls-8" d="M213.52,298.51c44.15,10.97,88.72,23.92,133.58,30.33,3.84-4.37,7.5-8.91,10.95-13.62,.02-.02,.04-.05,.06-.08,4.26-5.82,8.21-11.88,11.84-18.17,6.78-11.77,12.37-24.31,16.65-37.44-43.26,1.76-87.2,6.79-130.18,4.49-49.09-2.62-97.18-14.91-146.13-19.38-34.27-3.13-70.11-1.98-102.58,8.31,2.41,8.38,5.34,16.54,8.78,24.42,.03,.07,.06,.12,.08,.18,1.55,3.53,3.2,7,4.94,10.42,61.63-16.46,129.19-5.08,192.01,10.53Z"/>
            <path class="cls-3" d="M110.29,244.63c48.95,4.47,97.05,16.76,146.13,19.38,42.98,2.29,86.92-2.73,130.18-4.49,.91-2.79,1.78-5.6,2.57-8.45,3.2-11.58,5.35-23.6,6.4-35.93-71.84,1.26-143.67,2.51-215.51,3.77-59.19,1.04-119.17,2.21-177.33,11.96,1.25,7.51,2.92,14.88,4.99,22.07,32.47-10.29,68.32-11.44,102.58-8.31Z"/>
          </g>
          <g>
            <path class="cls-14" d="M220.25,1.22c62.42,37.56,104.88,111.67,104.88,196.93s-42.46,159.37-104.88,196.93c99.04-10.99,176.06-94.97,176.06-196.93S319.29,12.21,220.25,1.22Z"/>
            <path class="cls-15" d="M325.13,198.16c0-85.26-42.46-159.37-104.88-196.93-7.25-.81-14.62-1.22-22.1-1.22C88.72,0,0,88.72,0,198.16s88.72,198.16,198.16,198.16c7.47,0,14.84-.41,22.1-1.22,62.42-37.56,104.88-111.67,104.88-196.93Z"/>
            <ellipse class="cls-10" cx="132.75" cy="127.94" rx="108.05" ry="79.68" transform="translate(-51.5 121.4) rotate(-41.91)"/>
            <ellipse class="cls-11" cx="131.02" cy="107.97" rx="61.61" ry="45.43" transform="translate(-38.61 115.14) rotate(-41.91)"/>
            <ellipse class="cls-12" cx="136.44" cy="95.42" rx="34.03" ry="25.09" transform="translate(-28.83 115.54) rotate(-41.91)"/>
          </g>
        </g>
      </g>
    </g>
  </g>
</svg>